<?xml version="1.0" encoding="utf-8" ?>
<svg xmlns="http://www.w3.org/2000/svg" xmlns:xlink="http://www.w3.org/1999/xlink" width="221" height="37">
	<defs>
		<clipPath id="clip_0">
			<rect x="-94" y="-32" width="1440" height="4110" clip-rule="evenodd"/>
		</clipPath>
	</defs>
	<g clip-path="url(#clip_0)">
		<path fill="rgb(54,93,150)" stroke="none" transform="translate(6.03436 26.4529)" d="M21.4495 0.0806402C21.1105 -0.0676308 20.7129 -0.00753958 20.4359 0.234207L11.0874 8.38658L10.9198 8.38658L1.57128 0.234207C1.294 -0.00776982 0.896933 -0.0680912 0.557636 0.0806402C0.218574 0.229141 0 0.558146 0 0.921226L0 9.30751C0 9.8161 0.422294 10.2285 0.943147 10.2285L10.5555 10.2285C10.5555 10.2285 10.5583 10.2285 10.5599 10.2285L10.5642 10.2285L11.4477 10.2285L12.3689 10.2285L21.0645 10.2285C21.5853 10.2285 22.0076 9.8161 22.0076 9.30751L22.0076 0.921226C22.0072 0.558146 21.7888 0.228911 21.4495 0.0806402Z"/>
	</g>
	<defs>
		<clipPath id="clip_1">
			<rect x="-94" y="-32" width="1440" height="4110" clip-rule="evenodd"/>
		</clipPath>
	</defs>
	<g clip-path="url(#clip_1)">
		<path fill="rgb(242,112,91)" stroke="none" transform="translate(6.03436 16.5771)" d="M4.35299 7.75951L5.99381 7.75951C7.97009 7.75951 9.61724 6.32842 9.91028 4.35691L10.2767 1.89228L11.3757 1.89228L11.7422 4.35691C12.0352 6.32842 13.6823 7.75951 15.6586 7.75951L17.2994 7.75951C19.3428 7.75951 21.0368 6.21277 21.2403 4.16179L21.6527 0L20.6165 0L11.0946 0L10.558 0L1.0362 0L0 0L0.412372 4.16179C0.615627 6.213 2.30966 7.75951 4.35299 7.75951Z"/>
	</g>
	<defs>
		<clipPath id="clip_2">
			<rect x="-94" y="-32" width="1440" height="4110" clip-rule="evenodd"/>
		</clipPath>
	</defs>
	<g clip-path="url(#clip_2)">
		<path fill="rgb(54,93,150)" stroke="none" transform="translate(6.38928 0)" d="M14.3359 0.488541L11.2084 3.38673C10.4963 4.04116 9.41257 4.04116 8.70044 3.38673L5.54227 0.519704C4.58244 -0.35287 3.06528 -0.0100728 2.56988 1.17414L0 7.40681L19.8779 7.40681L17.308 1.14297C16.8129 -0.0409245 15.2954 -0.383722 14.3359 0.488541Z"/>
	</g>
	<defs>
		<clipPath id="clip_3">
			<rect x="-94" y="-32" width="1440" height="4110" clip-rule="evenodd"/>
		</clipPath>
	</defs>
	<g clip-path="url(#clip_3)">
		<path fill="rgb(54,93,150)" stroke="none" transform="translate(0 10.9338)" d="M0.522401 2.03687C-0.375039 2.48951 -0.0346307 3.87976 0.924702 3.87976L16.3359 3.87976L31.7165 3.87976C32.7065 3.87976 33.0159 2.48951 32.1494 2.03687L28.374 0L4.29784 0L0.522401 2.03687Z"/>
	</g>
	<defs>
		<clipPath id="clip_4">
			<rect x="-94" y="-32" width="1440" height="4110" clip-rule="evenodd"/>
		</clipPath>
	</defs>
	<g clip-path="url(#clip_4)">
		<path fill="rgb(242,112,91)" stroke="none" transform="translate(33 16.3959)" d="M5.0421 0L0 0L6.96168 18.2083L11.8246 18.2083L18.8375 0L14.0257 0L9.52112 13.1692L5.0421 0ZM33.7334 1.67537C32.4708 0.558453 30.6962 0 28.4098 0L20.5267 0L20.5267 18.2083L25.2105 18.2083L25.2105 13.1692L28.4098 13.1692C30.6962 13.1692 32.4708 12.5761 33.7334 11.3899C34.9961 10.2038 35.6274 8.53706 35.6274 6.3898C35.6274 4.36376 34.9961 2.7923 33.7334 1.67537ZM54.5417 0L50.1906 0L50.2162 10.9614L42.0516 0L37.9309 0L37.9309 18.2083L42.3075 18.2083L42.3075 7.32489L50.4466 18.2083L54.5417 18.2083L54.5417 0ZM28.1794 9.3769C29.135 9.3769 29.8729 9.13447 30.3933 8.64961C30.9138 8.16474 31.174 7.46343 31.174 6.54565C31.174 5.6625 30.9138 4.98283 30.3933 4.50663C29.8729 4.03042 29.135 3.79232 28.1794 3.79232L25.2105 3.79232L25.2105 9.3769L28.1794 9.3769Z" fill-rule="evenodd"/>
	</g>
	<defs>
		<clipPath id="clip_5">
			<rect x="-94" y="-32" width="1440" height="4110" clip-rule="evenodd"/>
		</clipPath>
	</defs>
	<g clip-path="url(#clip_5)">
		<path fill="rgb(54,93,150)" stroke="none" transform="translate(92.9958 16)" d="M64.4745 4.47521C65.5578 4.8416 66.5772 5.31267 67.5325 5.88843L69.2983 2.06749C68.3429 1.43939 67.234 0.937789 65.9715 0.562672C64.7091 0.187556 63.4296 0 62.133 0C60.6999 0 59.4418 0.231173 58.3585 0.693526C57.2751 1.15588 56.4392 1.8145 55.8506 2.66942C55.262 3.52434 54.9678 4.51882 54.9678 5.65289C54.9678 6.85676 55.2535 7.8207 55.825 8.54477C56.3965 9.26883 57.0832 9.80969 57.885 10.1674C58.6869 10.525 59.7019 10.8783 60.9303 11.2273C61.7492 11.4541 62.3846 11.6504 62.8367 11.8161C63.2888 11.9819 63.6642 12.2043 63.9627 12.4835C64.2613 12.7626 64.4105 13.1116 64.4105 13.5303C64.4105 14.0363 64.2101 14.4201 63.8092 14.6818C63.4082 14.9435 62.8581 15.0744 62.1586 15.0744C61.2032 15.0744 60.1071 14.8127 58.8703 14.2893C57.6334 13.7658 56.5629 13.0941 55.6587 12.2741L53.8418 16.0165C54.9166 16.9412 56.1918 17.6696 57.6675 18.2018C59.1432 18.7339 60.6232 19 62.1074 19C63.4552 19 64.6792 18.7819 65.7796 18.3457C66.88 17.9095 67.7458 17.2596 68.377 16.396C69.0082 15.5324 69.3239 14.4899 69.3239 13.2686C69.3239 12.0473 69.0338 11.0572 68.4538 10.2982C67.8737 9.53925 67.1785 8.97659 66.3682 8.61019C65.5578 8.2438 64.53 7.87741 63.2846 7.51102C62.4486 7.24931 61.8174 7.03558 61.3909 6.86983C60.9644 6.70409 60.6061 6.486 60.3161 6.21556C60.0261 5.94513 59.8811 5.60928 59.8811 5.20799C59.8811 4.78925 60.0474 4.47085 60.3801 4.25275C60.7128 4.03466 61.1691 3.92562 61.7492 3.92562C62.4827 3.92562 63.3912 4.10881 64.4745 4.47521ZM0 0.366391L4.68301 0.366391L4.68301 18.7121L0 18.7121L0 0.366391ZM20.421 0.366391L24.7713 0.366391L24.7713 18.7121L20.6769 18.7121L12.5392 7.74656L12.5392 18.7121L8.16327 18.7121L8.16327 0.366391L12.2833 0.366391L20.4466 11.4105L20.421 0.366391ZM31.5271 0.366391L26.4859 0.366391L33.4464 18.7121L38.3085 18.7121L45.3202 0.366391L40.5093 0.366391L36.0054 13.635L31.5271 0.366391ZM47.0092 0.366391L51.6922 0.366391L51.6922 18.7121L47.0092 18.7121L47.0092 0.366391ZM71.7037 0.366391L76.3867 0.366391L76.3867 18.7121L71.7037 18.7121L71.7037 0.366391ZM91.9072 0.929063C90.9092 0.553947 89.7363 0.366391 88.3886 0.366391L79.867 0.366391L79.867 18.7121L88.7212 18.7121C90.1202 18.7121 91.34 18.5071 92.3806 18.0971C93.4213 17.6871 94.2231 17.0939 94.7861 16.3175C95.3491 15.5411 95.6306 14.6382 95.6306 13.6088C95.6306 12.4224 95.3022 11.4105 94.6454 10.573C93.9885 9.73553 93.0886 9.2034 91.9456 8.97658C92.901 8.71487 93.6559 8.22636 94.2103 7.51102C94.7648 6.79568 95.042 5.95822 95.042 4.99862C95.042 4.05647 94.7691 3.23646 94.2231 2.53857C93.6772 1.84068 92.9052 1.30418 91.9072 0.929063ZM98.1896 0.366391L102.873 0.366391L102.873 14.6295L110.473 14.6295L110.473 18.7121L98.1896 18.7121L98.1896 0.366391ZM126.748 0.366391L112.597 0.366391L112.597 18.7121L127.004 18.7121L127.004 14.8912L117.28 14.8912L117.28 11.4366L125.827 11.4105L125.827 7.6157L117.28 7.6157L117.28 4.18733L126.748 4.18733L126.748 0.366391ZM88.1327 7.66804C88.7809 7.66804 89.2927 7.50666 89.6681 7.18388C90.0434 6.86111 90.231 6.41185 90.231 5.83609C90.231 5.27777 90.0434 4.84596 89.6681 4.54063C89.2927 4.23531 88.7809 4.09137 88.1327 4.10882L84.55 4.10882L84.55 7.66804L88.1327 7.66804ZM90.0775 14.4725C89.5998 14.8214 88.9515 14.9959 88.1327 14.9959L84.55 14.9959L84.55 11.1488L88.1327 11.1488C88.9515 11.1313 89.5998 11.2927 90.0775 11.6329C90.5552 11.9731 90.794 12.4311 90.794 13.0069C90.794 13.635 90.5552 14.1235 90.0775 14.4725Z" fill-rule="evenodd"/>
	</g>
</svg>
