<?xml version="1.0" encoding="utf-8" ?>
<svg xmlns="http://www.w3.org/2000/svg" xmlns:xlink="http://www.w3.org/1999/xlink" width="14" height="30">
	<defs>
		<clipPath id="clip_0">
			<rect x="-714" y="-1503" width="1440" height="8090" clip-rule="evenodd"/>
		</clipPath>
	</defs>
	<g clip-path="url(#clip_0)">
		<path fill="rgb(255,255,255)" stroke="none" transform="matrix(-4.37114e-08 -1 1 -4.37114e-08 0 30)" d="M29.0476 5.78419L3.25135 5.78419L7.4978 1.60125C7.86982 1.23504 7.86982 0.640978 7.4978 0.274821C7.12578 -0.091607 6.52266 -0.091607 6.15119 0.274821L0.279012 6.0589C-0.0930041 6.42511 -0.0930041 7.01923 0.279012 7.38533L6.15119 13.1697C6.33715 13.3529 6.58085 13.4444 6.8245 13.4444C7.06814 13.4444 7.31185 13.3529 7.4978 13.1697C7.86982 12.8035 7.86982 12.2094 7.4978 11.8433L3.25135 7.66015L29.0476 7.66015C29.5735 7.66015 30 7.24015 30 6.72214C30 6.20414 29.5736 5.78419 29.0476 5.78419Z"/>
	</g>
</svg>
