<?xml version="1.0" encoding="utf-8" ?>
<svg xmlns="http://www.w3.org/2000/svg" xmlns:xlink="http://www.w3.org/1999/xlink" width="43" height="35">
	<defs>
		<clipPath id="clip_0">
			<rect x="-444" y="-4114" width="1440" height="8090" clip-rule="evenodd"/>
		</clipPath>
	</defs>
	<g clip-path="url(#clip_0)">
		<path fill="rgb(81,214,208)" stroke="none" d="M36.5328 11.5671C36.1544 5.13857 30.8374 0 24.4276 0C20.5361 0 16.7679 1.90214 14.433 5.00571C14.3792 4.97786 14.3219 4.95857 14.2674 4.93214C14.1269 4.86429 13.985 4.8 13.8396 4.74214C13.755 4.70857 13.669 4.67857 13.583 4.64857C13.4418 4.59929 13.2985 4.55571 13.153 4.51643C13.067 4.49357 12.9817 4.47 12.895 4.45C12.7373 4.41429 12.5768 4.38714 12.4148 4.36357C12.3396 4.35214 12.265 4.33786 12.1891 4.32929C11.9511 4.30214 11.7111 4.28571 11.4667 4.28571C7.91057 4.28571 5.01667 7.16929 5.01667 10.7143C5.01667 10.8064 5.0224 10.8964 5.02813 10.9864C2.04752 12.6057 0 15.9993 0 19.3957C0 24.455 4.12943 28.5714 9.20558 28.5714L13.6933 28.5714L9.92082 35L33.0785 35L29.3059 28.5714L34.3792 28.5714C39.1329 28.5714 43 24.7171 43 19.98C43 16.0593 40.2573 12.5429 36.5328 11.5671ZM28.4681 27.1429L34.3799 27.1429C38.3424 27.1429 41.5667 23.9293 41.5667 19.98C41.5667 16.5436 39.0519 13.48 35.7144 12.8479C35.6169 12.8343 33.9542 12.6093 32.3575 12.8493C32.321 12.855 32.2844 12.8579 32.2486 12.8579C31.9003 12.8579 31.595 12.6043 31.5412 12.2507C31.4817 11.8607 31.7505 11.4964 32.1418 11.4371C33.239 11.2707 34.3362 11.2971 35.0687 11.3486C34.5878 5.81071 29.9774 1.42857 24.4269 1.42857C21.0614 1.42857 17.6773 3.12786 15.6233 5.80643C17.0237 6.98643 17.9167 8.74714 17.9167 10.7143C17.9167 11.1093 17.5956 11.4286 17.2 11.4286C16.8044 11.4286 16.4833 11.1093 16.4833 10.7143C16.4833 8.95643 15.566 7.41 14.1857 6.51786C14.0223 6.41214 13.8532 6.31857 13.6805 6.23357C13.631 6.20929 13.5816 6.185 13.5314 6.16214C13.3365 6.07429 13.1372 5.995 12.933 5.93286C12.9079 5.92571 12.8821 5.92071 12.857 5.91357C12.6714 5.86071 12.4829 5.81929 12.2915 5.78786C12.2357 5.77857 12.1798 5.76929 12.1239 5.76214C11.9067 5.73357 11.6881 5.71429 11.4667 5.71429C8.70033 5.71429 6.45 7.95786 6.45 10.7143C6.45 10.7743 6.4543 10.8336 6.4586 10.8929L6.4672 11.0371L6.46075 11.1607C6.45573 11.2507 6.45 11.3407 6.45 11.4286L6.45 11.8786L6.04293 12.0721C3.37192 13.3486 1.43333 16.4286 1.43333 19.3957C1.43333 23.6679 4.91992 27.1429 9.20558 27.1429L14.5319 27.1429L21.5 15.2686L28.4681 27.1429ZM12.4198 33.5714L15.3539 28.5714L15.3546 28.5714L21.5 18.0979L27.6461 28.5714L27.6468 28.5714L30.5802 33.5714L12.4198 33.5714Z" fill-rule="evenodd"/>
	</g>
	<defs>
		<clipPath id="clip_1">
			<rect x="-444" y="-4114" width="1440" height="8090" clip-rule="evenodd"/>
		</clipPath>
	</defs>
	<g clip-path="url(#clip_1)">
		<path fill="rgb(81,214,208)" stroke="none" transform="translate(20.5652 21.7568)" d="M0.934783 0C0.418783 0 0 0.33827 0 0.756757L0 6.81081C0 7.2293 0.418783 7.56757 0.934783 7.56757C1.45078 7.56757 1.86957 7.2293 1.86957 6.81081L1.86957 0.756757C1.86957 0.33827 1.45078 0 0.934783 0Z"/>
	</g>
	<defs>
		<clipPath id="clip_2">
			<rect x="-444" y="-4114" width="1440" height="8090" clip-rule="evenodd"/>
		</clipPath>
	</defs>
	<g clip-path="url(#clip_2)">
		<path fill="rgb(81,214,208)" stroke="none" transform="translate(20.5652 30.2703)" d="M0.934783 0C0.418783 0 0 0.281892 0 0.630631L0 1.26126C0 1.61 0.418783 1.89189 0.934783 1.89189C1.45078 1.89189 1.86957 1.61 1.86957 1.26126L1.86957 0.630631C1.86957 0.281892 1.45078 0 0.934783 0Z"/>
	</g>
</svg>
