<svg xmlns="http://www.w3.org/2000/svg" width="423" height="450" viewBox="0 0 423 450">
  <defs>
    <linearGradient id="chart-2-a" x1="1.452%" x2="117.082%" y1="54.392%" y2="54.392%">
      <stop offset="0%" stop-color="#673AB7"/>
      <stop offset="100%" stop-color="#00B1E7"/>
    </linearGradient>
  </defs>
  <g fill="none" fill-rule="evenodd" transform="translate(3 3)">
    <path stroke="url(#chart-2-a)" stroke-dasharray="1 15" stroke-linecap="round" stroke-width="6" d="M208.5,417 C323.65137,417 417,323.65137 417,208.5 C417,93.3486297 323.65137,0 208.5,0 C93.3486297,0 0,93.3486297 0,208.5 C0,323.65137 93.3486297,417 208.5,417 Z"/>
    <circle cx="79.5" cy="96.5" r="75.5" fill="#FFF" stroke="#673AB7" stroke-width="2"/>
    <path fill="#673AB7" d="M30.14,103 L30.14,92.1175 L34.0025,92.1175 C34.7325036,92.1175 35.3562474,92.1862493 35.87375,92.32375 C36.3912526,92.4612507 36.8137484,92.6562487 37.14125,92.90875 C37.4687516,93.1612513 37.7074992,93.4674982 37.8575,93.8275 C38.0075007,94.1875018 38.0825,94.5899978 38.0825,95.035 C38.0825,95.2850012 38.0462504,95.5249989 37.97375,95.755 C37.9012496,95.9850012 37.7887508,96.201249 37.63625,96.40375 C37.4837492,96.606251 37.2875012,96.7899992 37.0475,96.955 C36.8074988,97.1200008 36.5225017,97.2599994 36.1925,97.375 C37.6425073,97.7150017 38.3675,98.5124937 38.3675,99.7675 C38.3675,100.227502 38.2787509,100.654998 38.10125,101.05 C37.9237491,101.445002 37.6650017,101.787499 37.325,102.0775 C36.9849983,102.367501 36.5662525,102.593749 36.06875,102.75625 C35.5712475,102.918751 35.0000032,103 34.355,103 L30.14,103 Z M32.39,98.2975 L32.39,101.275 L34.3175,101.275 C34.6775018,101.275 34.9737488,101.23125 35.20625,101.14375 C35.4387512,101.05625 35.6249993,100.940001 35.765,100.795 C35.9050007,100.649999 36.0024997,100.483751 36.0575,100.29625 C36.1125003,100.108749 36.14,99.915001 36.14,99.715 C36.14,99.4949989 36.1075003,99.2975009 36.0425,99.1225 C35.9774997,98.9474991 35.8725007,98.7987506 35.7275,98.67625 C35.5824993,98.5537494 35.3937512,98.4600003 35.16125,98.395 C34.9287488,98.3299997 34.6425017,98.2975 34.3025,98.2975 L32.39,98.2975 Z M32.39,96.7675 L33.8675,96.7675 C34.1825016,96.7675 34.4624988,96.7412503 34.7075,96.68875 C34.9525012,96.6362497 35.1574992,96.5525006 35.3225,96.4375 C35.4875008,96.3224994 35.6137496,96.1712509 35.70125,95.98375 C35.7887504,95.7962491 35.8325,95.5700013 35.8325,95.305 C35.8325,95.0349987 35.7962504,94.8050009 35.72375,94.615 C35.6512496,94.424999 35.5400007,94.2725006 35.39,94.1575 C35.2399992,94.0424994 35.0500011,93.9587503 34.82,93.90625 C34.5899989,93.8537497 34.3175016,93.8275 34.0025,93.8275 L32.39,93.8275 L32.39,96.7675 Z M42.3425,101.17 L46.55,101.17 L46.55,103 L40.0925,103 L40.0925,92.1175 L42.3425,92.1175 L42.3425,101.17 Z M58.4375,97.555 C58.4375,98.350004 58.3037513,99.0874966 58.03625,99.7675 C57.7687487,100.447503 57.3912524,101.034998 56.90375,101.53 C56.4162476,102.025002 55.8300034,102.413749 55.145,102.69625 C54.4599966,102.978751 53.7000042,103.12 52.865,103.12 C52.0299958,103.12 51.2700034,102.978751 50.585,102.69625 C49.8999966,102.413749 49.3125024,102.025002 48.8225,101.53 C48.3324975,101.034998 47.9537513,100.447503 47.68625,99.7675 C47.4187487,99.0874966 47.285,98.350004 47.285,97.555 C47.285,96.759996 47.4187487,96.0237534 47.68625,95.34625 C47.9537513,94.6687466 48.3324975,94.0825025 48.8225,93.5875 C49.3125024,93.0924975 49.8999966,92.7037514 50.585,92.42125 C51.2700034,92.1387486 52.0299958,91.9975 52.865,91.9975 C53.7000042,91.9975 54.4599966,92.1387486 55.145,92.42125 C55.8300034,92.7037514 56.4162476,93.0937475 56.90375,93.59125 C57.3912524,94.0887525 57.7687487,94.6762466 58.03625,95.35375 C58.3037513,96.0312534 58.4375,96.7649961 58.4375,97.555 Z M56.135,97.555 C56.135,96.9849971 56.0600008,96.4737523 55.91,96.02125 C55.7599992,95.5687477 55.5437514,95.1837516 55.26125,94.86625 C54.9787486,94.5487484 54.636252,94.3062508 54.23375,94.13875 C53.831248,93.9712492 53.3750025,93.8875 52.865,93.8875 C52.3549974,93.8875 51.897502,93.9712492 51.4925,94.13875 C51.087498,94.3062508 50.7437514,94.5487484 50.46125,94.86625 C50.1787486,95.1837516 49.9625007,95.5687477 49.8125,96.02125 C49.6624992,96.4737523 49.5875,96.9849971 49.5875,97.555 C49.5875,98.1300029 49.6624992,98.6437477 49.8125,99.09625 C49.9625007,99.5487523 50.1787486,99.9324984 50.46125,100.2475 C50.7437514,100.562502 51.087498,100.803749 51.4925,100.97125 C51.897502,101.138751 52.3549974,101.2225 52.865,101.2225 C53.3750025,101.2225 53.831248,101.138751 54.23375,100.97125 C54.636252,100.803749 54.9787486,100.562502 55.26125,100.2475 C55.5437514,99.9324984 55.7599992,99.5487523 55.91,99.09625 C56.0600008,98.6437477 56.135,98.1300029 56.135,97.555 Z M67.4975,100.3225 C67.6225006,100.3225 67.7274996,100.3675 67.8125,100.4575 L68.705,101.41 C68.2649978,101.970003 67.7187533,102.394999 67.06625,102.685 C66.4137467,102.975001 65.6375045,103.12 64.7375,103.12 C63.9224959,103.12 63.1900033,102.981251 62.54,102.70375 C61.8899967,102.426249 61.3375023,102.040002 60.8825,101.545 C60.4274977,101.049998 60.0775012,100.462503 59.8325,99.7825 C59.5874988,99.1024966 59.465,98.360004 59.465,97.555 C59.465,97.0149973 59.5237494,96.5012524 59.64125,96.01375 C59.7587506,95.5262476 59.9299989,95.077502 60.155,94.6675 C60.3800011,94.257498 60.6512484,93.8875017 60.96875,93.5575 C61.2862516,93.2274984 61.644998,92.9462512 62.045,92.71375 C62.445002,92.4812488 62.8812476,92.3037506 63.35375,92.18125 C63.8262524,92.0587494 64.3299973,91.9975 64.865,91.9975 C65.265002,91.9975 65.6437482,92.0324997 66.00125,92.1025 C66.3587518,92.1725004 66.6924984,92.2699994 67.0025,92.395 C67.3125016,92.5200006 67.5987487,92.6712491 67.86125,92.84875 C68.1237513,93.0262509 68.359999,93.219999 68.57,93.43 L67.8125,94.465 C67.7674998,94.5300003 67.7100004,94.5874998 67.64,94.6375 C67.5699996,94.6875002 67.4750006,94.7125 67.355,94.7125 C67.2349994,94.7125 67.1137506,94.6700004 66.99125,94.585 C66.8687494,94.4999996 66.7187509,94.4050005 66.54125,94.3 C66.3637491,94.1949995 66.1412513,94.1000004 65.87375,94.015 C65.6062487,93.9299996 65.267502,93.8875 64.8575,93.8875 C64.4024977,93.8875 63.9850019,93.9699992 63.605,94.135 C63.2249981,94.3000008 62.8987514,94.5387484 62.62625,94.85125 C62.3537486,95.1637516 62.1425007,95.5474977 61.9925,96.0025 C61.8424992,96.4575023 61.7675,96.9749971 61.7675,97.555 C61.7675,98.1400029 61.8487492,98.6612477 62.01125,99.11875 C62.1737508,99.5762523 62.3962486,99.9624984 62.67875,100.2775 C62.9612514,100.592502 63.2912481,100.831249 63.66875,100.99375 C64.0462519,101.156251 64.4499979,101.2375 64.88,101.2375 C65.1350013,101.2375 65.366249,101.225 65.57375,101.2 C65.781251,101.175 65.9737491,101.1325 66.15125,101.0725 C66.3287509,101.0125 66.4962492,100.935 66.65375,100.84 C66.8112508,100.745 66.9699992,100.625001 67.13,100.48 C67.1850003,100.435 67.2424997,100.3975 67.3025,100.3675 C67.3625003,100.3375 67.4274996,100.3225 67.4975,100.3225 Z M72.2225,96.61 L72.665,96.61 C73.0350019,96.61 73.3024992,96.4950012 73.4675,96.265 L76.22,92.5825 C76.3500006,92.4074991 76.4924992,92.2862503 76.6475,92.21875 C76.8025008,92.1512497 76.9924989,92.1175 77.2175,92.1175 L79.1675,92.1175 L75.7025,96.58 C75.4774989,96.8700015 75.2450012,97.0774994 75.005,97.2025 C75.1800009,97.2725004 75.3374993,97.3637494 75.4775,97.47625 C75.6175007,97.5887506 75.7524993,97.7374991 75.8825,97.9225 L79.4375,103 L77.435,103 C77.3049993,103 77.1937505,102.99 77.10125,102.97 C77.0087495,102.95 76.9275003,102.9225 76.8575,102.8875 C76.7874997,102.8525 76.7275002,102.80875 76.6775,102.75625 C76.6274997,102.70375 76.5800002,102.6425 76.535,102.5725 L73.7375,98.6575 C73.6424995,98.5224993 73.5300007,98.4262503 73.4,98.36875 C73.2699994,98.3112497 73.0875012,98.2825 72.8525,98.2825 L72.2225,98.2825 L72.2225,103 L69.9725,103 L69.9725,92.1175 L72.2225,92.1175 L72.2225,96.61 Z M87.8075,100.3225 C87.9325006,100.3225 88.0374996,100.3675 88.1225,100.4575 L89.015,101.41 C88.5749978,101.970003 88.0287533,102.394999 87.37625,102.685 C86.7237467,102.975001 85.9475045,103.12 85.0475,103.12 C84.2324959,103.12 83.5000032,102.981251 82.85,102.70375 C82.1999967,102.426249 81.6475023,102.040002 81.1925,101.545 C80.7374977,101.049998 80.3875012,100.462503 80.1425,99.7825 C79.8974988,99.1024966 79.775,98.360004 79.775,97.555 C79.775,97.0149973 79.8337494,96.5012524 79.95125,96.01375 C80.0687506,95.5262476 80.2399989,95.077502 80.465,94.6675 C80.6900011,94.257498 80.9612484,93.8875017 81.27875,93.5575 C81.5962516,93.2274984 81.954998,92.9462512 82.355,92.71375 C82.755002,92.4812488 83.1912476,92.3037506 83.66375,92.18125 C84.1362524,92.0587494 84.6399973,91.9975 85.175,91.9975 C85.575002,91.9975 85.9537482,92.0324997 86.31125,92.1025 C86.6687518,92.1725004 87.0024984,92.2699994 87.3125,92.395 C87.6225015,92.5200006 87.9087487,92.6712491 88.17125,92.84875 C88.4337513,93.0262509 88.6699989,93.219999 88.88,93.43 L88.1225,94.465 C88.0774998,94.5300003 88.0200003,94.5874998 87.95,94.6375 C87.8799996,94.6875002 87.7850006,94.7125 87.665,94.7125 C87.5449994,94.7125 87.4237506,94.6700004 87.30125,94.585 C87.1787494,94.4999996 87.0287509,94.4050005 86.85125,94.3 C86.6737491,94.1949995 86.4512513,94.1000004 86.18375,94.015 C85.9162487,93.9299996 85.577502,93.8875 85.1675,93.8875 C84.7124977,93.8875 84.2950019,93.9699992 83.915,94.135 C83.5349981,94.3000008 83.2087514,94.5387484 82.93625,94.85125 C82.6637486,95.1637516 82.4525007,95.5474977 82.3025,96.0025 C82.1524992,96.4575023 82.0775,96.9749971 82.0775,97.555 C82.0775,98.1400029 82.1587492,98.6612477 82.32125,99.11875 C82.4837508,99.5762523 82.7062486,99.9624984 82.98875,100.2775 C83.2712514,100.592502 83.6012481,100.831249 83.97875,100.99375 C84.3562519,101.156251 84.7599978,101.2375 85.19,101.2375 C85.4450013,101.2375 85.676249,101.225 85.88375,101.2 C86.091251,101.175 86.2837491,101.1325 86.46125,101.0725 C86.6387509,101.0125 86.8062492,100.935 86.96375,100.84 C87.1212508,100.745 87.2799992,100.625001 87.44,100.48 C87.4950003,100.435 87.5524997,100.3975 87.6125,100.3675 C87.6725003,100.3375 87.7374996,100.3225 87.8075,100.3225 Z M99.605,103 L97.34,103 L97.34,98.3125 L92.5475,98.3125 L92.5475,103 L90.2825,103 L90.2825,92.1175 L92.5475,92.1175 L92.5475,96.7375 L97.34,96.7375 L97.34,92.1175 L99.605,92.1175 L99.605,103 Z M111.41,103 L109.6625,103 C109.467499,103 109.308751,102.95375 109.18625,102.86125 C109.063749,102.76875 108.9725,102.650001 108.9125,102.505 L108.1775,100.4275 L103.8425,100.4275 L103.1075,102.505 C103.0575,102.630001 102.970001,102.743749 102.845,102.84625 C102.719999,102.948751 102.562501,103 102.3725,103 L100.61,103 L104.8625,92.1175 L107.165,92.1175 L111.41,103 Z M104.39,98.8675 L107.63,98.8675 L106.4525,95.5375 C106.3825,95.3624991 106.30875,95.1575012 106.23125,94.9225 C106.15375,94.6874988 106.0775,94.4350013 106.0025,94.165 C105.9325,94.4400014 105.86,94.6962488 105.785,94.93375 C105.71,95.1712512 105.6375,95.3774991 105.5675,95.5525 L104.39,98.8675 Z M114.68,103 L112.415,103 L112.415,92.1175 L114.68,92.1175 L114.68,103 Z M118.145,92.1175 C118.24,92.1175 118.32125,92.12125 118.38875,92.12875 C118.45625,92.13625 118.5175,92.1537499 118.5725,92.18125 C118.6275,92.2087501 118.68,92.2449998 118.73,92.29 C118.78,92.3350002 118.835,92.3949996 118.895,92.47 L124.355,99.4075 C124.335,99.2174991 124.32,99.0325009 124.31,98.8525 C124.3,98.6724991 124.295,98.5025008 124.295,98.3425 L124.295,92.1175 L126.2825,92.1175 L126.2825,103 L125.12,103 C124.944999,103 124.797501,102.97125 124.6775,102.91375 C124.557499,102.85625 124.440001,102.757501 124.325,102.6175 L118.9025,95.725 C118.9175,95.9000009 118.92875,96.0712492 118.93625,96.23875 C118.94375,96.4062508 118.9475,96.5624993 118.9475,96.7075 L118.9475,103 L116.96,103 L116.96,92.1175 L118.145,92.1175 Z"/>
    <circle cx="332.5" cy="96.5" r="75.5" fill="#FFF" stroke="#3686FF" stroke-width="2"/>
    <path fill="#3686FF" d="M294.9225,91 L292.6575,91 L292.6575,80.1175 L294.9225,80.1175 L294.9225,91 Z M298.3875,80.1175 C298.4825,80.1175 298.56375,80.12125 298.63125,80.12875 C298.69875,80.13625 298.76,80.1537499 298.815,80.18125 C298.87,80.2087501 298.9225,80.2449998 298.9725,80.29 C299.0225,80.3350002 299.0775,80.3949996 299.1375,80.47 L304.5975,87.4075 C304.5775,87.2174991 304.5625,87.0325009 304.5525,86.8525 C304.5425,86.6724991 304.5375,86.5025008 304.5375,86.3425 L304.5375,80.1175 L306.525,80.1175 L306.525,91 L305.3625,91 C305.187499,91 305.040001,90.9712503 304.92,90.91375 C304.799999,90.8562497 304.682501,90.7575007 304.5675,90.6175 L299.145,83.725 C299.16,83.9000009 299.17125,84.0712492 299.17875,84.23875 C299.18625,84.4062508 299.19,84.5624993 299.19,84.7075 L299.19,91 L297.2025,91 L297.2025,80.1175 L298.3875,80.1175 Z M314.7,82.2025 C314.63,82.3175006 314.55875,82.4012497 314.48625,82.45375 C314.41375,82.5062503 314.320001,82.5325 314.205,82.5325 C314.094999,82.5325 313.976251,82.4937504 313.84875,82.41625 C313.721249,82.3387496 313.572501,82.2550004 313.4025,82.165 C313.232499,82.0749996 313.037501,81.9912504 312.8175,81.91375 C312.597499,81.8362496 312.340001,81.7975 312.045,81.7975 C311.524997,81.7975 311.135001,81.9137488 310.875,82.14625 C310.614999,82.3787512 310.485,82.6824981 310.485,83.0575 C310.485,83.2975012 310.556249,83.4962492 310.69875,83.65375 C310.841251,83.8112508 311.028749,83.9474994 311.26125,84.0625 C311.493751,84.1775006 311.757499,84.2799995 312.0525,84.37 C312.347501,84.4600004 312.649998,84.5587495 312.96,84.66625 C313.270002,84.7737505 313.572499,84.8999993 313.8675,85.045 C314.162501,85.1900007 314.426249,85.3724989 314.65875,85.5925 C314.891251,85.8125011 315.078749,86.0812484 315.22125,86.39875 C315.363751,86.7162516 315.435,87.1024977 315.435,87.5575 C315.435,88.0525025 315.348751,88.5162478 315.17625,88.94875 C315.003749,89.3812522 314.755002,89.7587484 314.43,90.08125 C314.104998,90.4037516 313.703752,90.6574991 313.22625,90.8425 C312.748748,91.0275009 312.207503,91.12 311.6025,91.12 C311.257498,91.12 310.913752,91.0850004 310.57125,91.015 C310.228748,90.9449996 309.898752,90.8475006 309.58125,90.7225 C309.263748,90.5974994 308.965001,90.4475009 308.685,90.2725 C308.404999,90.0974991 308.160001,89.9025011 307.95,89.6875 L308.61,88.6225 C308.665,88.5424996 308.7375,88.4762503 308.8275,88.42375 C308.9175,88.3712497 309.012499,88.345 309.1125,88.345 C309.247501,88.345 309.389999,88.3949995 309.54,88.495 C309.690001,88.5950005 309.862499,88.7049994 310.0575,88.825 C310.252501,88.9450006 310.478749,89.0549995 310.73625,89.155 C310.993751,89.2550005 311.302498,89.305 311.6625,89.305 C312.187503,89.305 312.593749,89.1850012 312.88125,88.945 C313.168751,88.7049988 313.3125,88.3475024 313.3125,87.8725 C313.3125,87.5974986 313.241251,87.3750008 313.09875,87.205 C312.956249,87.0349992 312.770001,86.8925006 312.54,86.7775 C312.309999,86.6624994 312.047501,86.5637504 311.7525,86.48125 C311.457499,86.3987496 311.155002,86.3075005 310.845,86.2075 C310.534998,86.1074995 310.232501,85.9875007 309.9375,85.8475 C309.642499,85.7074993 309.380001,85.5225012 309.15,85.2925 C308.919999,85.0624988 308.733751,84.7775017 308.59125,84.4375 C308.448749,84.0974983 308.3775,83.6750025 308.3775,83.17 C308.3775,82.764998 308.457499,82.3725019 308.6175,81.9925 C308.777501,81.6124981 309.012498,81.2750015 309.3225,80.98 C309.632502,80.6849985 310.013748,80.4475009 310.46625,80.2675 C310.918752,80.0874991 311.437497,79.9975 312.0225,79.9975 C312.677503,79.9975 313.283747,80.098749 313.84125,80.30125 C314.398753,80.503751 314.869998,80.7849982 315.255,81.145 L314.7,82.2025 Z M321.525,89.2 C321.890002,89.2 322.217499,89.1387506 322.5075,89.01625 C322.797501,88.8937494 323.042499,88.7200011 323.2425,88.495 C323.442501,88.2699989 323.594999,87.9975016 323.7,87.6775 C323.805001,87.3574984 323.8575,86.997502 323.8575,86.5975 L323.8575,80.1175 L326.1075,80.1175 L326.1075,86.5975 C326.1075,87.2575033 326.001251,87.8637472 325.78875,88.41625 C325.576249,88.9687528 325.272502,89.444998 324.8775,89.845 C324.482498,90.245002 324.002503,90.5574989 323.4375,90.7825 C322.872497,91.0075011 322.235004,91.12 321.525,91.12 C320.814996,91.12 320.176253,91.0075011 319.60875,90.7825 C319.041247,90.5574989 318.560002,90.245002 318.165,89.845 C317.769998,89.444998 317.466251,88.9687528 317.25375,88.41625 C317.041249,87.8637472 316.935,87.2575033 316.935,86.5975 L316.935,80.1175 L319.185,80.1175 L319.185,86.5975 C319.185,86.997502 319.237499,87.3574984 319.3425,87.6775 C319.447501,87.9975016 319.599999,88.2699989 319.8,88.495 C320.000001,88.7200011 320.244999,88.8937494 320.535,89.01625 C320.825001,89.1387506 321.154998,89.2 321.525,89.2 Z M330.5025,86.8525 L330.5025,91 L328.2525,91 L328.2525,80.1175 L331.6725,80.1175 C332.432504,80.1175 333.082497,80.1962492 333.6225,80.35375 C334.162503,80.5112508 334.604998,80.7299986 334.95,81.01 C335.295002,81.2900014 335.547499,81.6237481 335.7075,82.01125 C335.867501,82.3987519 335.9475,82.8249977 335.9475,83.29 C335.9475,83.6500018 335.896251,83.9912484 335.79375,84.31375 C335.691249,84.6362516 335.542501,84.9299987 335.3475,85.195 C335.152499,85.4600013 334.912501,85.694999 334.6275,85.9 C334.342499,86.105001 334.015002,86.2699994 333.645,86.395 C333.790001,86.4750004 333.926249,86.5712494 334.05375,86.68375 C334.181251,86.7962506 334.295,86.9299992 334.395,87.085 L336.93,91 L334.8975,91 C334.517498,91 334.242501,90.8550015 334.0725,90.565 L332.0025,87.2275 C331.9175,87.0974993 331.823751,87.0025003 331.72125,86.9425 C331.618749,86.8824997 331.467501,86.8525 331.2675,86.8525 L330.5025,86.8525 Z M330.5025,85.27 L331.6575,85.27 C332.022502,85.27 332.337499,85.2237505 332.6025,85.13125 C332.867501,85.0387495 333.084999,84.9112508 333.255,84.74875 C333.425001,84.5862492 333.55,84.3950011 333.63,84.175 C333.71,83.9549989 333.75,83.7150013 333.75,83.455 C333.75,82.9399974 333.578752,82.5400014 333.23625,82.255 C332.893748,81.9699986 332.372503,81.8275 331.6725,81.8275 L330.5025,81.8275 L330.5025,85.27 Z M347.52,91 L345.7725,91 C345.577499,91 345.418751,90.9537505 345.29625,90.86125 C345.173749,90.7687495 345.0825,90.6500007 345.0225,90.505 L344.2875,88.4275 L339.9525,88.4275 L339.2175,90.505 C339.1675,90.6300006 339.080001,90.7437495 338.955,90.84625 C338.829999,90.9487505 338.672501,91 338.4825,91 L336.72,91 L340.9725,80.1175 L343.275,80.1175 L347.52,91 Z M340.5,86.8675 L343.74,86.8675 L342.5625,83.5375 C342.4925,83.3624991 342.41875,83.1575012 342.34125,82.9225 C342.26375,82.6874988 342.1875,82.4350013 342.1125,82.165 C342.0425,82.4400014 341.97,82.6962488 341.895,82.93375 C341.82,83.1712512 341.7475,83.3774991 341.6775,83.5525 L340.5,86.8675 Z M349.71,80.1175 C349.805,80.1175 349.88625,80.12125 349.95375,80.12875 C350.02125,80.13625 350.0825,80.1537499 350.1375,80.18125 C350.1925,80.2087501 350.245,80.2449998 350.295,80.29 C350.345,80.3350002 350.4,80.3949996 350.46,80.47 L355.92,87.4075 C355.9,87.2174991 355.885,87.0325009 355.875,86.8525 C355.865,86.6724991 355.86,86.5025008 355.86,86.3425 L355.86,80.1175 L357.8475,80.1175 L357.8475,91 L356.685,91 C356.509999,91 356.362501,90.9712503 356.2425,90.91375 C356.122499,90.8562497 356.005001,90.7575007 355.89,90.6175 L350.4675,83.725 C350.4825,83.9000009 350.49375,84.0712492 350.50125,84.23875 C350.50875,84.4062508 350.5125,84.5624993 350.5125,84.7075 L350.5125,91 L348.525,91 L348.525,80.1175 L349.71,80.1175 Z M367.5375,88.3225 C367.662501,88.3225 367.7675,88.3674995 367.8525,88.4575 L368.745,89.41 C368.304998,89.9700028 367.758753,90.3949985 367.10625,90.685 C366.453747,90.9750015 365.677504,91.12 364.7775,91.12 C363.962496,91.12 363.230003,90.9812514 362.58,90.70375 C361.929997,90.4262486 361.377502,90.0400025 360.9225,89.545 C360.467498,89.0499975 360.117501,88.4625034 359.8725,87.7825 C359.627499,87.1024966 359.505,86.360004 359.505,85.555 C359.505,85.0149973 359.563749,84.5012524 359.68125,84.01375 C359.798751,83.5262476 359.969999,83.077502 360.195,82.6675 C360.420001,82.257498 360.691248,81.8875017 361.00875,81.5575 C361.326252,81.2274984 361.684998,80.9462512 362.085,80.71375 C362.485002,80.4812488 362.921248,80.3037506 363.39375,80.18125 C363.866252,80.0587494 364.369997,79.9975 364.905,79.9975 C365.305002,79.9975 365.683748,80.0324997 366.04125,80.1025 C366.398752,80.1725003 366.732498,80.2699994 367.0425,80.395 C367.352502,80.5200006 367.638749,80.6712491 367.90125,80.84875 C368.163751,81.0262509 368.399999,81.219999 368.61,81.43 L367.8525,82.465 C367.8075,82.5300003 367.75,82.5874998 367.68,82.6375 C367.61,82.6875002 367.515001,82.7125 367.395,82.7125 C367.274999,82.7125 367.153751,82.6700004 367.03125,82.585 C366.908749,82.4999996 366.758751,82.4050005 366.58125,82.3 C366.403749,82.1949995 366.181251,82.1000004 365.91375,82.015 C365.646249,81.9299996 365.307502,81.8875 364.8975,81.8875 C364.442498,81.8875 364.025002,81.9699992 363.645,82.135 C363.264998,82.3000008 362.938751,82.5387484 362.66625,82.85125 C362.393749,83.1637516 362.182501,83.5474977 362.0325,84.0025 C361.882499,84.4575023 361.8075,84.9749971 361.8075,85.555 C361.8075,86.1400029 361.888749,86.6612477 362.05125,87.11875 C362.213751,87.5762523 362.436249,87.9624984 362.71875,88.2775 C363.001251,88.5925016 363.331248,88.8312492 363.70875,88.99375 C364.086252,89.1562508 364.489998,89.2375 364.92,89.2375 C365.175001,89.2375 365.406249,89.2250001 365.61375,89.2 C365.821251,89.1749999 366.013749,89.1325003 366.19125,89.0725 C366.368751,89.0124997 366.536249,88.9350005 366.69375,88.84 C366.851251,88.7449995 367.009999,88.6250007 367.17,88.48 C367.225,88.4349998 367.2825,88.3975001 367.3425,88.3675 C367.4025,88.3374999 367.4675,88.3225 367.5375,88.3225 Z M376.9425,80.1175 L376.9425,81.88 L372.2775,81.88 L372.2775,84.6775 L375.9075,84.6775 L375.9075,86.38 L372.2775,86.38 L372.2775,89.2375 L376.9425,89.2375 L376.9425,91 L370.0125,91 L370.0125,80.1175 L376.9425,80.1175 Z M298.00875,103.1175 L298.00875,104.9325 L294.82875,104.9325 L294.82875,114 L292.57125,114 L292.57125,104.9325 L289.39125,104.9325 L289.39125,103.1175 L298.00875,103.1175 Z M306.29625,103.1175 L306.29625,104.88 L301.63125,104.88 L301.63125,107.6775 L305.26125,107.6775 L305.26125,109.38 L301.63125,109.38 L301.63125,112.2375 L306.29625,112.2375 L306.29625,114 L299.36625,114 L299.36625,103.1175 L306.29625,103.1175 Z M310.22625,112.17 L314.43375,112.17 L314.43375,114 L307.97625,114 L307.97625,103.1175 L310.22625,103.1175 L310.22625,112.17 Z M322.73625,103.1175 L322.73625,104.88 L318.07125,104.88 L318.07125,107.6775 L321.70125,107.6775 L321.70125,109.38 L318.07125,109.38 L318.07125,112.2375 L322.73625,112.2375 L322.73625,114 L315.80625,114 L315.80625,103.1175 L322.73625,103.1175 Z M329.92125,109.275 C330.01125,109.450001 330.0975,109.629999 330.18,109.815 C330.2625,110.000001 330.34125,110.189999 330.41625,110.385 C330.49125,110.184999 330.57125,109.990001 330.65625,109.8 C330.74125,109.609999 330.83125,109.427501 330.92625,109.2525 L333.94875,103.47 C333.99375,103.385 334.04125,103.31875 334.09125,103.27125 C334.14125,103.22375 334.195,103.18875 334.2525,103.16625 C334.31,103.14375 334.375,103.13 334.4475,103.125 C334.52,103.12 334.606249,103.1175 334.70625,103.1175 L336.41625,103.1175 L336.41625,114 L334.42875,114 L334.42875,107.3175 C334.42875,107.182499 334.4325,107.035001 334.44,106.875 C334.4475,106.714999 334.45875,106.550001 334.47375,106.38 L331.36875,112.2825 C331.198749,112.607502 330.936252,112.77 330.58125,112.77 L330.26625,112.77 C330.091249,112.77 329.936251,112.72875 329.80125,112.64625 C329.666249,112.56375 329.55875,112.442501 329.47875,112.2825 L326.35125,106.365 C326.36625,106.535001 326.37875,106.701249 326.38875,106.86375 C326.39875,107.026251 326.40375,107.177499 326.40375,107.3175 L326.40375,114 L324.41625,114 L324.41625,103.1175 L326.12625,103.1175 C326.22125,103.1175 326.30625,103.12 326.38125,103.125 C326.45625,103.13 326.5225,103.14375 326.58,103.16625 C326.6375,103.18875 326.69,103.22375 326.7375,103.27125 C326.785,103.31875 326.83125,103.385 326.87625,103.47 L329.92125,109.275 Z M348.21375,114 L346.46625,114 C346.271249,114 346.112501,113.95375 345.99,113.86125 C345.867499,113.76875 345.77625,113.650001 345.71625,113.505 L344.98125,111.4275 L340.64625,111.4275 L339.91125,113.505 C339.86125,113.630001 339.773751,113.743749 339.64875,113.84625 C339.523749,113.948751 339.366251,114 339.17625,114 L337.41375,114 L341.66625,103.1175 L343.96875,103.1175 L348.21375,114 Z M341.19375,109.8675 L344.43375,109.8675 L343.25625,106.5375 C343.18625,106.362499 343.1125,106.157501 343.035,105.9225 C342.9575,105.687499 342.88125,105.435001 342.80625,105.165 C342.73625,105.440001 342.66375,105.696249 342.58875,105.93375 C342.51375,106.171251 342.44125,106.377499 342.37125,106.5525 L341.19375,109.8675 Z M356.92125,103.1175 L356.92125,104.9325 L353.74125,104.9325 L353.74125,114 L351.48375,114 L351.48375,104.9325 L348.30375,104.9325 L348.30375,103.1175 L356.92125,103.1175 Z M360.54375,114 L358.27875,114 L358.27875,103.1175 L360.54375,103.1175 L360.54375,114 Z M370.23375,111.3225 C370.358751,111.3225 370.46375,111.3675 370.54875,111.4575 L371.44125,112.41 C371.001248,112.970003 370.455003,113.394999 369.8025,113.685 C369.149997,113.975001 368.373755,114.12 367.47375,114.12 C366.658746,114.12 365.926253,113.981251 365.27625,113.70375 C364.626247,113.426249 364.073752,113.040002 363.61875,112.545 C363.163748,112.049998 362.813751,111.462503 362.56875,110.7825 C362.323749,110.102497 362.20125,109.360004 362.20125,108.555 C362.20125,108.014997 362.259999,107.501252 362.3775,107.01375 C362.495001,106.526248 362.666249,106.077502 362.89125,105.6675 C363.116251,105.257498 363.387498,104.887502 363.705,104.5575 C364.022502,104.227498 364.381248,103.946251 364.78125,103.71375 C365.181252,103.481249 365.617498,103.303751 366.09,103.18125 C366.562502,103.058749 367.066247,102.9975 367.60125,102.9975 C368.001252,102.9975 368.379998,103.0325 368.7375,103.1025 C369.095002,103.1725 369.428748,103.269999 369.73875,103.395 C370.048752,103.520001 370.334999,103.671249 370.5975,103.84875 C370.860001,104.026251 371.096249,104.219999 371.30625,104.43 L370.54875,105.465 C370.50375,105.53 370.44625,105.5875 370.37625,105.6375 C370.30625,105.6875 370.211251,105.7125 370.09125,105.7125 C369.971249,105.7125 369.850001,105.67 369.7275,105.585 C369.604999,105.5 369.455001,105.405001 369.2775,105.3 C369.099999,105.194999 368.877501,105.1 368.61,105.015 C368.342499,104.93 368.003752,104.8875 367.59375,104.8875 C367.138748,104.8875 366.721252,104.969999 366.34125,105.135 C365.961248,105.300001 365.635001,105.538748 365.3625,105.85125 C365.089999,106.163752 364.878751,106.547498 364.72875,107.0025 C364.578749,107.457502 364.50375,107.974997 364.50375,108.555 C364.50375,109.140003 364.584999,109.661248 364.7475,110.11875 C364.910001,110.576252 365.132499,110.962498 365.415,111.2775 C365.697501,111.592502 366.027498,111.831249 366.405,111.99375 C366.782502,112.156251 367.186248,112.2375 367.61625,112.2375 C367.871251,112.2375 368.102499,112.225 368.31,112.2 C368.517501,112.175 368.709999,112.1325 368.8875,112.0725 C369.065001,112.0125 369.232499,111.935 369.39,111.84 C369.547501,111.745 369.706249,111.625001 369.86625,111.48 C369.92125,111.435 369.97875,111.3975 370.03875,111.3675 C370.09875,111.3375 370.16375,111.3225 370.23375,111.3225 Z M378.60375,105.2025 C378.53375,105.317501 378.4625,105.40125 378.39,105.45375 C378.3175,105.50625 378.223751,105.5325 378.10875,105.5325 C377.998749,105.5325 377.880001,105.49375 377.7525,105.41625 C377.624999,105.33875 377.476251,105.255 377.30625,105.165 C377.136249,105.075 376.941251,104.99125 376.72125,104.91375 C376.501249,104.83625 376.243751,104.7975 375.94875,104.7975 C375.428747,104.7975 375.038751,104.913749 374.77875,105.14625 C374.518749,105.378751 374.38875,105.682498 374.38875,106.0575 C374.38875,106.297501 374.459999,106.496249 374.6025,106.65375 C374.745001,106.811251 374.932499,106.947499 375.165,107.0625 C375.397501,107.177501 375.661249,107.28 375.95625,107.37 C376.251251,107.46 376.553748,107.558749 376.86375,107.66625 C377.173752,107.773751 377.476249,107.899999 377.77125,108.045 C378.066251,108.190001 378.329999,108.372499 378.5625,108.5925 C378.795001,108.812501 378.982499,109.081248 379.125,109.39875 C379.267501,109.716252 379.33875,110.102498 379.33875,110.5575 C379.33875,111.052502 379.252501,111.516248 379.08,111.94875 C378.907499,112.381252 378.658752,112.758748 378.33375,113.08125 C378.008748,113.403752 377.607502,113.657499 377.13,113.8425 C376.652498,114.027501 376.111253,114.12 375.50625,114.12 C375.161248,114.12 374.817502,114.085 374.475,114.015 C374.132498,113.945 373.802502,113.847501 373.485,113.7225 C373.167498,113.597499 372.868751,113.447501 372.58875,113.2725 C372.308749,113.097499 372.063751,112.902501 371.85375,112.6875 L372.51375,111.6225 C372.56875,111.5425 372.64125,111.47625 372.73125,111.42375 C372.82125,111.37125 372.91625,111.345 373.01625,111.345 C373.151251,111.345 373.293749,111.394999 373.44375,111.495 C373.593751,111.595 373.766249,111.704999 373.96125,111.825 C374.156251,111.945001 374.382499,112.055 374.64,112.155 C374.897501,112.255 375.206248,112.305 375.56625,112.305 C376.091253,112.305 376.497499,112.185001 376.785,111.945 C377.072501,111.704999 377.21625,111.347502 377.21625,110.8725 C377.21625,110.597499 377.145001,110.375001 377.0025,110.205 C376.859999,110.034999 376.673751,109.892501 376.44375,109.7775 C376.213749,109.662499 375.951251,109.56375 375.65625,109.48125 C375.361249,109.39875 375.058752,109.307501 374.74875,109.2075 C374.438748,109.1075 374.136251,108.987501 373.84125,108.8475 C373.546249,108.707499 373.283751,108.522501 373.05375,108.2925 C372.823749,108.062499 372.637501,107.777502 372.495,107.4375 C372.352499,107.097498 372.28125,106.675003 372.28125,106.17 C372.28125,105.764998 372.361249,105.372502 372.52125,104.9925 C372.681251,104.612498 372.916248,104.275001 373.22625,103.98 C373.536252,103.684999 373.917498,103.447501 374.37,103.2675 C374.822502,103.087499 375.341247,102.9975 375.92625,102.9975 C376.581253,102.9975 377.187497,103.098749 377.745,103.30125 C378.302503,103.503751 378.773748,103.784998 379.15875,104.145 L378.60375,105.2025 Z"/>
    <circle cx="216.5" cy="370.5" r="75.5" fill="#FFF" stroke="#00B1E7" stroke-width="2"/>
    <path fill="#00B1E7" d="M171.2,366.2 C171.565002,366.2 171.892499,366.138751 172.1825,366.01625 C172.472501,365.893749 172.717499,365.720001 172.9175,365.495 C173.117501,365.269999 173.269999,364.997502 173.375,364.6775 C173.480001,364.357498 173.5325,363.997502 173.5325,363.5975 L173.5325,357.1175 L175.7825,357.1175 L175.7825,363.5975 C175.7825,364.257503 175.676251,364.863747 175.46375,365.41625 C175.251249,365.968753 174.947502,366.444998 174.5525,366.845 C174.157498,367.245002 173.677503,367.557499 173.1125,367.7825 C172.547497,368.007501 171.910004,368.12 171.2,368.12 C170.489996,368.12 169.851253,368.007501 169.28375,367.7825 C168.716247,367.557499 168.235002,367.245002 167.84,366.845 C167.444998,366.444998 167.141251,365.968753 166.92875,365.41625 C166.716249,364.863747 166.61,364.257503 166.61,363.5975 L166.61,357.1175 L168.86,357.1175 L168.86,363.5975 C168.86,363.997502 168.912499,364.357498 169.0175,364.6775 C169.122501,364.997502 169.274999,365.269999 169.475,365.495 C169.675001,365.720001 169.919999,365.893749 170.21,366.01625 C170.500001,366.138751 170.829998,366.2 171.2,366.2 Z M183.8225,359.2025 C183.7525,359.317501 183.68125,359.40125 183.60875,359.45375 C183.53625,359.50625 183.442501,359.5325 183.3275,359.5325 C183.217499,359.5325 183.098751,359.49375 182.97125,359.41625 C182.843749,359.33875 182.695001,359.255 182.525,359.165 C182.354999,359.075 182.160001,358.99125 181.94,358.91375 C181.719999,358.83625 181.462501,358.7975 181.1675,358.7975 C180.647497,358.7975 180.257501,358.913749 179.9975,359.14625 C179.737499,359.378751 179.6075,359.682498 179.6075,360.0575 C179.6075,360.297501 179.678749,360.496249 179.82125,360.65375 C179.963751,360.811251 180.151249,360.947499 180.38375,361.0625 C180.616251,361.177501 180.879999,361.28 181.175,361.37 C181.470001,361.46 181.772498,361.558749 182.0825,361.66625 C182.392502,361.773751 182.694999,361.899999 182.99,362.045 C183.285001,362.190001 183.548749,362.372499 183.78125,362.5925 C184.013751,362.812501 184.201249,363.081248 184.34375,363.39875 C184.486251,363.716252 184.5575,364.102498 184.5575,364.5575 C184.5575,365.052502 184.471251,365.516248 184.29875,365.94875 C184.126249,366.381252 183.877502,366.758748 183.5525,367.08125 C183.227498,367.403752 182.826252,367.657499 182.34875,367.8425 C181.871248,368.027501 181.330003,368.12 180.725,368.12 C180.379998,368.12 180.036252,368.085 179.69375,368.015 C179.351248,367.945 179.021252,367.847501 178.70375,367.7225 C178.386248,367.597499 178.087501,367.447501 177.8075,367.2725 C177.527499,367.097499 177.282501,366.902501 177.0725,366.6875 L177.7325,365.6225 C177.7875,365.5425 177.86,365.47625 177.95,365.42375 C178.04,365.37125 178.134999,365.345 178.235,365.345 C178.370001,365.345 178.512499,365.394999 178.6625,365.495 C178.812501,365.595 178.984999,365.704999 179.18,365.825 C179.375001,365.945001 179.601249,366.055 179.85875,366.155 C180.116251,366.255 180.424998,366.305 180.785,366.305 C181.310003,366.305 181.716249,366.185001 182.00375,365.945 C182.291251,365.704999 182.435,365.347502 182.435,364.8725 C182.435,364.597499 182.363751,364.375001 182.22125,364.205 C182.078749,364.034999 181.892501,363.892501 181.6625,363.7775 C181.432499,363.662499 181.170001,363.56375 180.875,363.48125 C180.579999,363.39875 180.277502,363.307501 179.9675,363.2075 C179.657498,363.1075 179.355001,362.987501 179.06,362.8475 C178.764999,362.707499 178.502501,362.522501 178.2725,362.2925 C178.042499,362.062499 177.856251,361.777502 177.71375,361.4375 C177.571249,361.097498 177.5,360.675003 177.5,360.17 C177.5,359.764998 177.579999,359.372502 177.74,358.9925 C177.900001,358.612498 178.134998,358.275001 178.445,357.98 C178.755002,357.684999 179.136248,357.447501 179.58875,357.2675 C180.041252,357.087499 180.559997,356.9975 181.145,356.9975 C181.800003,356.9975 182.406247,357.098749 182.96375,357.30125 C183.521253,357.503751 183.992498,357.784998 184.3775,358.145 L183.8225,359.2025 Z M195.7175,368 L193.97,368 C193.774999,368 193.616251,367.95375 193.49375,367.86125 C193.371249,367.76875 193.28,367.650001 193.22,367.505 L192.485,365.4275 L188.15,365.4275 L187.415,367.505 C187.365,367.630001 187.277501,367.743749 187.1525,367.84625 C187.027499,367.948751 186.870001,368 186.68,368 L184.9175,368 L189.17,357.1175 L191.4725,357.1175 L195.7175,368 Z M188.6975,363.8675 L191.9375,363.8675 L190.76,360.5375 C190.69,360.362499 190.61625,360.157501 190.53875,359.9225 C190.46125,359.687499 190.385,359.435001 190.31,359.165 C190.24,359.440001 190.1675,359.696249 190.0925,359.93375 C190.0175,360.171251 189.945,360.377499 189.875,360.5525 L188.6975,363.8675 Z M205.7525,366.95 C205.197497,367.355002 204.606253,367.651249 203.97875,367.83875 C203.351247,368.026251 202.687503,368.12 201.9875,368.12 C201.092496,368.12 200.282504,367.981251 199.5575,367.70375 C198.832496,367.426249 198.212503,367.040002 197.6975,366.545 C197.182497,366.049998 196.785001,365.462503 196.505,364.7825 C196.224999,364.102497 196.085,363.360004 196.085,362.555 C196.085,361.739996 196.218749,360.992503 196.48625,360.3125 C196.753751,359.632497 197.134998,359.047502 197.63,358.5575 C198.125002,358.067498 198.723746,357.685001 199.42625,357.41 C200.128754,357.134999 200.914996,356.9975 201.785,356.9975 C202.235002,356.9975 202.654998,357.03375 203.045,357.10625 C203.435002,357.17875 203.794998,357.278749 204.125,357.40625 C204.455002,357.533751 204.757499,357.684999 205.0325,357.86 C205.307501,358.035001 205.557499,358.227499 205.7825,358.4375 L205.13,359.4425 C205.03,359.602501 204.900001,359.7 204.74,359.735 C204.579999,359.77 204.405001,359.730001 204.215,359.615 C204.034999,359.504999 203.858751,359.40625 203.68625,359.31875 C203.513749,359.23125 203.330001,359.155 203.135,359.09 C202.939999,359.025 202.727501,358.975 202.4975,358.94 C202.267499,358.905 202.002501,358.8875 201.7025,358.8875 C201.197497,358.8875 200.740002,358.974999 200.33,359.15 C199.919998,359.325001 199.571251,359.572498 199.28375,359.8925 C198.996249,360.212502 198.775001,360.597498 198.62,361.0475 C198.464999,361.497502 198.3875,361.999997 198.3875,362.555 C198.3875,363.155003 198.472499,363.691248 198.6425,364.16375 C198.812501,364.636252 199.052498,365.034998 199.3625,365.36 C199.672502,365.685002 200.043748,365.932499 200.47625,366.1025 C200.908752,366.272501 201.389997,366.3575 201.92,366.3575 C202.280002,366.3575 202.601249,366.32125 202.88375,366.24875 C203.166251,366.17625 203.442499,366.077501 203.7125,365.9525 L203.7125,364.1225 L202.4825,364.1225 C202.337499,364.1225 202.22375,364.08375 202.14125,364.00625 C202.05875,363.92875 202.0175,363.830001 202.0175,363.71 L202.0175,362.4575 L205.7525,362.4575 L205.7525,366.95 Z M214.52,357.1175 L214.52,358.88 L209.855,358.88 L209.855,361.6775 L213.485,361.6775 L213.485,363.38 L209.855,363.38 L209.855,366.2375 L214.52,366.2375 L214.52,368 L207.59,368 L207.59,357.1175 L214.52,357.1175 Z M219.7625,368 L219.7625,357.1175 L223.625,357.1175 C224.355004,357.1175 224.978747,357.186249 225.49625,357.32375 C226.013753,357.461251 226.436248,357.656249 226.76375,357.90875 C227.091252,358.161251 227.329999,358.467498 227.48,358.8275 C227.630001,359.187502 227.705,359.589998 227.705,360.035 C227.705,360.285001 227.66875,360.524999 227.59625,360.755 C227.52375,360.985001 227.411251,361.201249 227.25875,361.40375 C227.106249,361.606251 226.910001,361.789999 226.67,361.955 C226.429999,362.120001 226.145002,362.259999 225.815,362.375 C227.265007,362.715002 227.99,363.512494 227.99,364.7675 C227.99,365.227502 227.901251,365.654998 227.72375,366.05 C227.546249,366.445002 227.287502,366.787499 226.9475,367.0775 C226.607498,367.367501 226.188752,367.593749 225.69125,367.75625 C225.193748,367.918751 224.622503,368 223.9775,368 L219.7625,368 Z M222.0125,363.2975 L222.0125,366.275 L223.94,366.275 C224.300002,366.275 224.596249,366.23125 224.82875,366.14375 C225.061251,366.05625 225.247499,365.940001 225.3875,365.795 C225.527501,365.649999 225.625,365.483751 225.68,365.29625 C225.735,365.108749 225.7625,364.915001 225.7625,364.715 C225.7625,364.494999 225.73,364.297501 225.665,364.1225 C225.6,363.947499 225.495001,363.798751 225.35,363.67625 C225.204999,363.553749 225.016251,363.46 224.78375,363.395 C224.551249,363.33 224.265002,363.2975 223.925,363.2975 L222.0125,363.2975 Z M222.0125,361.7675 L223.49,361.7675 C223.805002,361.7675 224.084999,361.74125 224.33,361.68875 C224.575001,361.63625 224.779999,361.552501 224.945,361.4375 C225.110001,361.322499 225.23625,361.171251 225.32375,360.98375 C225.41125,360.796249 225.455,360.570001 225.455,360.305 C225.455,360.034999 225.41875,359.805001 225.34625,359.615 C225.27375,359.424999 225.162501,359.272501 225.0125,359.1575 C224.862499,359.042499 224.672501,358.95875 224.4425,358.90625 C224.212499,358.85375 223.940002,358.8275 223.625,358.8275 L222.0125,358.8275 L222.0125,361.7675 Z M239.24,368 L237.4925,368 C237.297499,368 237.138751,367.95375 237.01625,367.86125 C236.893749,367.76875 236.8025,367.650001 236.7425,367.505 L236.0075,365.4275 L231.6725,365.4275 L230.9375,367.505 C230.8875,367.630001 230.800001,367.743749 230.675,367.84625 C230.549999,367.948751 230.392501,368 230.2025,368 L228.44,368 L232.6925,357.1175 L234.995,357.1175 L239.24,368 Z M232.22,363.8675 L235.46,363.8675 L234.2825,360.5375 C234.2125,360.362499 234.13875,360.157501 234.06125,359.9225 C233.98375,359.687499 233.9075,359.435001 233.8325,359.165 C233.7625,359.440001 233.69,359.696249 233.615,359.93375 C233.54,360.171251 233.4675,360.377499 233.3975,360.5525 L232.22,363.8675 Z M246.14,359.2025 C246.07,359.317501 245.99875,359.40125 245.92625,359.45375 C245.85375,359.50625 245.760001,359.5325 245.645,359.5325 C245.534999,359.5325 245.416251,359.49375 245.28875,359.41625 C245.161249,359.33875 245.012501,359.255 244.8425,359.165 C244.672499,359.075 244.477501,358.99125 244.2575,358.91375 C244.037499,358.83625 243.780001,358.7975 243.485,358.7975 C242.964997,358.7975 242.575001,358.913749 242.315,359.14625 C242.054999,359.378751 241.925,359.682498 241.925,360.0575 C241.925,360.297501 241.996249,360.496249 242.13875,360.65375 C242.281251,360.811251 242.468749,360.947499 242.70125,361.0625 C242.933751,361.177501 243.197499,361.28 243.4925,361.37 C243.787501,361.46 244.089998,361.558749 244.4,361.66625 C244.710002,361.773751 245.012499,361.899999 245.3075,362.045 C245.602501,362.190001 245.866249,362.372499 246.09875,362.5925 C246.331251,362.812501 246.518749,363.081248 246.66125,363.39875 C246.803751,363.716252 246.875,364.102498 246.875,364.5575 C246.875,365.052502 246.788751,365.516248 246.61625,365.94875 C246.443749,366.381252 246.195002,366.758748 245.87,367.08125 C245.544998,367.403752 245.143752,367.657499 244.66625,367.8425 C244.188748,368.027501 243.647503,368.12 243.0425,368.12 C242.697498,368.12 242.353752,368.085 242.01125,368.015 C241.668748,367.945 241.338752,367.847501 241.02125,367.7225 C240.703748,367.597499 240.405001,367.447501 240.125,367.2725 C239.844999,367.097499 239.600001,366.902501 239.39,366.6875 L240.05,365.6225 C240.105,365.5425 240.1775,365.47625 240.2675,365.42375 C240.3575,365.37125 240.452499,365.345 240.5525,365.345 C240.687501,365.345 240.829999,365.394999 240.98,365.495 C241.130001,365.595 241.302499,365.704999 241.4975,365.825 C241.692501,365.945001 241.918749,366.055 242.17625,366.155 C242.433751,366.255 242.742498,366.305 243.1025,366.305 C243.627503,366.305 244.033749,366.185001 244.32125,365.945 C244.608751,365.704999 244.7525,365.347502 244.7525,364.8725 C244.7525,364.597499 244.681251,364.375001 244.53875,364.205 C244.396249,364.034999 244.210001,363.892501 243.98,363.7775 C243.749999,363.662499 243.487501,363.56375 243.1925,363.48125 C242.897499,363.39875 242.595002,363.307501 242.285,363.2075 C241.974998,363.1075 241.672501,362.987501 241.3775,362.8475 C241.082499,362.707499 240.820001,362.522501 240.59,362.2925 C240.359999,362.062499 240.173751,361.777502 240.03125,361.4375 C239.888749,361.097498 239.8175,360.675003 239.8175,360.17 C239.8175,359.764998 239.897499,359.372502 240.0575,358.9925 C240.217501,358.612498 240.452498,358.275001 240.7625,357.98 C241.072502,357.684999 241.453748,357.447501 241.90625,357.2675 C242.358752,357.087499 242.877497,356.9975 243.4625,356.9975 C244.117503,356.9975 244.723747,357.098749 245.28125,357.30125 C245.838753,357.503751 246.309998,357.784998 246.695,358.145 L246.14,359.2025 Z M255.44,357.1175 L255.44,358.88 L250.775,358.88 L250.775,361.6775 L254.405,361.6775 L254.405,363.38 L250.775,363.38 L250.775,366.2375 L255.44,366.2375 L255.44,368 L248.51,368 L248.51,357.1175 L255.44,357.1175 Z M266.8775,362.555 C266.8775,363.350004 266.743751,364.081247 266.47625,364.74875 C266.208749,365.416253 265.831252,365.989998 265.34375,366.47 C264.856248,366.950002 264.270003,367.324999 263.585,367.595 C262.899997,367.865001 262.140004,368 261.305,368 L257.12,368 L257.12,357.1175 L261.305,357.1175 C262.140004,357.1175 262.899997,357.252499 263.585,357.5225 C264.270003,357.792501 264.856248,358.168748 265.34375,358.65125 C265.831252,359.133752 266.208749,359.707497 266.47625,360.3725 C266.743751,361.037503 266.8775,361.764996 266.8775,362.555 Z M264.5675,362.555 C264.5675,361.984997 264.492501,361.472502 264.3425,361.0175 C264.192499,360.562498 263.977501,360.177502 263.6975,359.8625 C263.417499,359.547498 263.076252,359.305001 262.67375,359.135 C262.271248,358.964999 261.815003,358.88 261.305,358.88 L259.385,358.88 L259.385,366.2375 L261.305,366.2375 C261.815003,366.2375 262.271248,366.153751 262.67375,365.98625 C263.076252,365.818749 263.417499,365.576252 263.6975,365.25875 C263.977501,364.941248 264.192499,364.555002 264.3425,364.1 C264.492501,363.644998 264.5675,363.130003 264.5675,362.555 Z M176.9225,386 L174.6575,386 L174.6575,375.1175 L176.9225,375.1175 L176.9225,386 Z M180.3875,375.1175 C180.4825,375.1175 180.56375,375.12125 180.63125,375.12875 C180.69875,375.13625 180.76,375.15375 180.815,375.18125 C180.87,375.20875 180.9225,375.245 180.9725,375.29 C181.0225,375.335 181.0775,375.395 181.1375,375.47 L186.5975,382.4075 C186.5775,382.217499 186.5625,382.032501 186.5525,381.8525 C186.5425,381.672499 186.5375,381.502501 186.5375,381.3425 L186.5375,375.1175 L188.525,375.1175 L188.525,386 L187.3625,386 C187.187499,386 187.040001,385.97125 186.92,385.91375 C186.799999,385.85625 186.682501,385.757501 186.5675,385.6175 L181.145,378.725 C181.16,378.900001 181.17125,379.071249 181.17875,379.23875 C181.18625,379.406251 181.19,379.562499 181.19,379.7075 L181.19,386 L179.2025,386 L179.2025,375.1175 L180.3875,375.1175 Z M196.7,377.2025 C196.63,377.317501 196.55875,377.40125 196.48625,377.45375 C196.41375,377.50625 196.320001,377.5325 196.205,377.5325 C196.094999,377.5325 195.976251,377.49375 195.84875,377.41625 C195.721249,377.33875 195.572501,377.255 195.4025,377.165 C195.232499,377.075 195.037501,376.99125 194.8175,376.91375 C194.597499,376.83625 194.340001,376.7975 194.045,376.7975 C193.524997,376.7975 193.135001,376.913749 192.875,377.14625 C192.614999,377.378751 192.485,377.682498 192.485,378.0575 C192.485,378.297501 192.556249,378.496249 192.69875,378.65375 C192.841251,378.811251 193.028749,378.947499 193.26125,379.0625 C193.493751,379.177501 193.757499,379.28 194.0525,379.37 C194.347501,379.46 194.649998,379.558749 194.96,379.66625 C195.270002,379.773751 195.572499,379.899999 195.8675,380.045 C196.162501,380.190001 196.426249,380.372499 196.65875,380.5925 C196.891251,380.812501 197.078749,381.081248 197.22125,381.39875 C197.363751,381.716252 197.435,382.102498 197.435,382.5575 C197.435,383.052502 197.348751,383.516248 197.17625,383.94875 C197.003749,384.381252 196.755002,384.758748 196.43,385.08125 C196.104998,385.403752 195.703752,385.657499 195.22625,385.8425 C194.748748,386.027501 194.207503,386.12 193.6025,386.12 C193.257498,386.12 192.913752,386.085 192.57125,386.015 C192.228748,385.945 191.898752,385.847501 191.58125,385.7225 C191.263748,385.597499 190.965001,385.447501 190.685,385.2725 C190.404999,385.097499 190.160001,384.902501 189.95,384.6875 L190.61,383.6225 C190.665,383.5425 190.7375,383.47625 190.8275,383.42375 C190.9175,383.37125 191.012499,383.345 191.1125,383.345 C191.247501,383.345 191.389999,383.394999 191.54,383.495 C191.690001,383.595 191.862499,383.704999 192.0575,383.825 C192.252501,383.945001 192.478749,384.055 192.73625,384.155 C192.993751,384.255 193.302498,384.305 193.6625,384.305 C194.187503,384.305 194.593749,384.185001 194.88125,383.945 C195.168751,383.704999 195.3125,383.347502 195.3125,382.8725 C195.3125,382.597499 195.241251,382.375001 195.09875,382.205 C194.956249,382.034999 194.770001,381.892501 194.54,381.7775 C194.309999,381.662499 194.047501,381.56375 193.7525,381.48125 C193.457499,381.39875 193.155002,381.307501 192.845,381.2075 C192.534998,381.1075 192.232501,380.987501 191.9375,380.8475 C191.642499,380.707499 191.380001,380.522501 191.15,380.2925 C190.919999,380.062499 190.733751,379.777502 190.59125,379.4375 C190.448749,379.097498 190.3775,378.675003 190.3775,378.17 C190.3775,377.764998 190.457499,377.372502 190.6175,376.9925 C190.777501,376.612498 191.012498,376.275001 191.3225,375.98 C191.632502,375.684999 192.013748,375.447501 192.46625,375.2675 C192.918752,375.087499 193.437497,374.9975 194.0225,374.9975 C194.677503,374.9975 195.283747,375.098749 195.84125,375.30125 C196.398753,375.503751 196.869998,375.784998 197.255,376.145 L196.7,377.2025 Z M203.525,384.2 C203.890002,384.2 204.217499,384.138751 204.5075,384.01625 C204.797501,383.893749 205.042499,383.720001 205.2425,383.495 C205.442501,383.269999 205.594999,382.997502 205.7,382.6775 C205.805001,382.357498 205.8575,381.997502 205.8575,381.5975 L205.8575,375.1175 L208.1075,375.1175 L208.1075,381.5975 C208.1075,382.257503 208.001251,382.863747 207.78875,383.41625 C207.576249,383.968753 207.272502,384.444998 206.8775,384.845 C206.482498,385.245002 206.002503,385.557499 205.4375,385.7825 C204.872497,386.007501 204.235004,386.12 203.525,386.12 C202.814996,386.12 202.176253,386.007501 201.60875,385.7825 C201.041247,385.557499 200.560002,385.245002 200.165,384.845 C199.769998,384.444998 199.466251,383.968753 199.25375,383.41625 C199.041249,382.863747 198.935,382.257503 198.935,381.5975 L198.935,375.1175 L201.185,375.1175 L201.185,381.5975 C201.185,381.997502 201.237499,382.357498 201.3425,382.6775 C201.447501,382.997502 201.599999,383.269999 201.8,383.495 C202.000001,383.720001 202.244999,383.893749 202.535,384.01625 C202.825001,384.138751 203.154998,384.2 203.525,384.2 Z M212.5025,381.8525 L212.5025,386 L210.2525,386 L210.2525,375.1175 L213.6725,375.1175 C214.432504,375.1175 215.082497,375.196249 215.6225,375.35375 C216.162503,375.511251 216.604998,375.729999 216.95,376.01 C217.295002,376.290001 217.547499,376.623748 217.7075,377.01125 C217.867501,377.398752 217.9475,377.824998 217.9475,378.29 C217.9475,378.650002 217.896251,378.991248 217.79375,379.31375 C217.691249,379.636252 217.542501,379.929999 217.3475,380.195 C217.152499,380.460001 216.912501,380.694999 216.6275,380.9 C216.342499,381.105001 216.015002,381.269999 215.645,381.395 C215.790001,381.475 215.926249,381.571249 216.05375,381.68375 C216.181251,381.796251 216.294999,381.929999 216.395,382.085 L218.93,386 L216.8975,386 C216.517498,386 216.242501,385.855001 216.0725,385.565 L214.0025,382.2275 C213.9175,382.097499 213.823751,382.0025 213.72125,381.9425 C213.618749,381.8825 213.467501,381.8525 213.2675,381.8525 L212.5025,381.8525 Z M212.5025,380.27 L213.6575,380.27 C214.022502,380.27 214.337499,380.22375 214.6025,380.13125 C214.867501,380.03875 215.084999,379.911251 215.255,379.74875 C215.425001,379.586249 215.55,379.395001 215.63,379.175 C215.71,378.954999 215.75,378.715001 215.75,378.455 C215.75,377.939997 215.578752,377.540001 215.23625,377.255 C214.893748,376.969999 214.372503,376.8275 213.6725,376.8275 L212.5025,376.8275 L212.5025,380.27 Z M229.52,386 L227.7725,386 C227.577499,386 227.418751,385.95375 227.29625,385.86125 C227.173749,385.76875 227.0825,385.650001 227.0225,385.505 L226.2875,383.4275 L221.9525,383.4275 L221.2175,385.505 C221.1675,385.630001 221.080001,385.743749 220.955,385.84625 C220.829999,385.948751 220.672501,386 220.4825,386 L218.72,386 L222.9725,375.1175 L225.275,375.1175 L229.52,386 Z M222.5,381.8675 L225.74,381.8675 L224.5625,378.5375 C224.4925,378.362499 224.41875,378.157501 224.34125,377.9225 C224.26375,377.687499 224.1875,377.435001 224.1125,377.165 C224.0425,377.440001 223.97,377.696249 223.895,377.93375 C223.82,378.171251 223.7475,378.377499 223.6775,378.5525 L222.5,381.8675 Z M231.71,375.1175 C231.805,375.1175 231.88625,375.12125 231.95375,375.12875 C232.02125,375.13625 232.0825,375.15375 232.1375,375.18125 C232.1925,375.20875 232.245,375.245 232.295,375.29 C232.345,375.335 232.4,375.395 232.46,375.47 L237.92,382.4075 C237.9,382.217499 237.885,382.032501 237.875,381.8525 C237.865,381.672499 237.86,381.502501 237.86,381.3425 L237.86,375.1175 L239.8475,375.1175 L239.8475,386 L238.685,386 C238.509999,386 238.362501,385.97125 238.2425,385.91375 C238.122499,385.85625 238.005001,385.757501 237.89,385.6175 L232.4675,378.725 C232.4825,378.900001 232.49375,379.071249 232.50125,379.23875 C232.50875,379.406251 232.5125,379.562499 232.5125,379.7075 L232.5125,386 L230.525,386 L230.525,375.1175 L231.71,375.1175 Z M249.5375,383.3225 C249.662501,383.3225 249.7675,383.3675 249.8525,383.4575 L250.745,384.41 C250.304998,384.970003 249.758753,385.394999 249.10625,385.685 C248.453747,385.975001 247.677504,386.12 246.7775,386.12 C245.962496,386.12 245.230003,385.981251 244.58,385.70375 C243.929997,385.426249 243.377502,385.040002 242.9225,384.545 C242.467498,384.049998 242.117501,383.462503 241.8725,382.7825 C241.627499,382.102497 241.505,381.360004 241.505,380.555 C241.505,380.014997 241.563749,379.501252 241.68125,379.01375 C241.798751,378.526248 241.969999,378.077502 242.195,377.6675 C242.420001,377.257498 242.691248,376.887502 243.00875,376.5575 C243.326252,376.227498 243.684998,375.946251 244.085,375.71375 C244.485002,375.481249 244.921248,375.303751 245.39375,375.18125 C245.866252,375.058749 246.369997,374.9975 246.905,374.9975 C247.305002,374.9975 247.683748,375.0325 248.04125,375.1025 C248.398752,375.1725 248.732498,375.269999 249.0425,375.395 C249.352502,375.520001 249.638749,375.671249 249.90125,375.84875 C250.163751,376.026251 250.399999,376.219999 250.61,376.43 L249.8525,377.465 C249.8075,377.53 249.75,377.5875 249.68,377.6375 C249.61,377.6875 249.515001,377.7125 249.395,377.7125 C249.274999,377.7125 249.153751,377.67 249.03125,377.585 C248.908749,377.5 248.758751,377.405001 248.58125,377.3 C248.403749,377.194999 248.181251,377.1 247.91375,377.015 C247.646249,376.93 247.307502,376.8875 246.8975,376.8875 C246.442498,376.8875 246.025002,376.969999 245.645,377.135 C245.264998,377.300001 244.938751,377.538748 244.66625,377.85125 C244.393749,378.163752 244.182501,378.547498 244.0325,379.0025 C243.882499,379.457502 243.8075,379.974997 243.8075,380.555 C243.8075,381.140003 243.888749,381.661248 244.05125,382.11875 C244.213751,382.576252 244.436249,382.962498 244.71875,383.2775 C245.001251,383.592502 245.331248,383.831249 245.70875,383.99375 C246.086252,384.156251 246.489998,384.2375 246.92,384.2375 C247.175001,384.2375 247.406249,384.225 247.61375,384.2 C247.821251,384.175 248.013749,384.1325 248.19125,384.0725 C248.368751,384.0125 248.536249,383.935 248.69375,383.84 C248.851251,383.745 249.009999,383.625001 249.17,383.48 C249.225,383.435 249.2825,383.3975 249.3425,383.3675 C249.4025,383.3375 249.4675,383.3225 249.5375,383.3225 Z M258.9425,375.1175 L258.9425,376.88 L254.2775,376.88 L254.2775,379.6775 L257.9075,379.6775 L257.9075,381.38 L254.2775,381.38 L254.2775,384.2375 L258.9425,384.2375 L258.9425,386 L252.0125,386 L252.0125,375.1175 L258.9425,375.1175 Z"/>
    <path fill="url(#chart-2-a)" d="M162.790316,211.030395 L167.735409,211.030395 L167.735409,237.24924 L163.940337,237.24924 L163.53783,234.246201 L163.192823,234.246201 C162.311136,235.32422 161.113208,236.209723 159.599006,236.902736 C158.084803,237.595748 156.599373,237.942249 155.142672,237.942249 C149.047527,237.942249 146,234.207737 146,226.738602 L146,211.030395 L150.945093,211.030395 L150.945093,225.641337 C150.945093,230.992935 152.861776,233.668693 156.695201,233.668693 C157.806894,233.668693 158.956904,233.379942 160.145266,232.802432 C161.333628,232.224921 162.215302,231.531919 162.790316,230.723404 L162.790316,211.030395 Z M180.55815,237.24924 L176.705577,237.24924 L176.705577,202.656535 L181.65067,200 L181.65067,213.802432 C183.375711,211.49239 185.848233,210.337386 189.06831,210.337386 C192.940068,210.337386 195.987595,211.761891 198.210981,214.610942 C200.089359,216.997986 201.028534,220.000995 201.028534,223.620061 C201.028534,228.394147 199.648522,232.090159 196.888457,234.708207 C194.66507,236.864246 191.962547,237.942249 188.780804,237.942249 C187.247434,237.942249 185.733254,237.605373 184.238219,236.931611 C182.743183,236.257849 181.708174,235.458971 181.13316,234.534954 L180.55815,237.24924 Z M181.65067,219.288754 L181.65067,229.683891 C181.91901,230.877412 182.666516,231.916916 183.893212,232.802432 C185.119908,233.687948 186.44242,234.130699 187.860787,234.130699 C190.199176,234.130699 192.096693,233.206696 193.553394,231.358663 C195.010095,229.510629 195.738435,227.123622 195.738435,224.197568 C195.738435,220.848008 194.971762,218.287749 193.438392,216.516717 C192.096693,214.976689 190.371678,214.206687 188.263294,214.206687 C186.806593,214.206687 185.445748,214.687938 184.180718,215.650456 C182.915688,216.612973 182.072347,217.825727 181.65067,219.288754 Z M213.333766,211.030395 L213.333766,237.24924 L208.388673,237.24924 L208.388673,211.030395 L213.333766,211.030395 Z M207.986165,202.945289 C207.986165,202.136774 208.273668,201.443772 208.848681,200.866261 C209.423695,200.288751 210.113701,200 210.91872,200 C211.723739,200 212.423329,200.288751 213.01751,200.866261 C213.611691,201.443772 213.908776,202.136774 213.908776,202.945289 C213.908776,203.792304 213.621274,204.504556 213.04626,205.082067 C212.471247,205.659577 211.762074,205.948328 210.91872,205.948328 C210.075367,205.948328 209.375777,205.659577 208.819931,205.082067 C208.264084,204.504556 207.986165,203.792304 207.986165,202.945289 Z M229.204064,215.072948 L229.146563,230.319149 C229.146563,232.860195 230.104905,234.130699 232.021617,234.130699 C233.363316,234.130699 234.685827,233.745698 235.989192,232.975684 L237.714224,235.632219 C235.60584,237.210748 233.324987,238 230.871595,238 C226.424823,238 224.20147,235.555242 224.20147,230.665653 L224.20147,215.072948 L220.348898,215.072948 L220.348898,211.030395 L224.258971,211.030395 L224.258971,205.659574 L229.204064,203.06079 L229.204064,211.030395 L237.024211,211.030395 L237.024211,215.072948 L229.204064,215.072948 Z M266.809771,225.81459 L248.409425,225.81459 C248.677765,228.355636 249.597773,230.367267 251.169477,231.849544 C252.741181,233.331821 254.753699,234.072948 257.20709,234.072948 C259.583814,234.072948 261.998835,233.341446 264.452227,231.878419 L265.947255,234.708207 C263.263857,236.864246 260.082163,237.942249 256.402075,237.942249 C252.185308,237.942249 248.831112,236.613995 246.339386,233.957447 C244.039331,231.493402 242.889321,228.259392 242.889321,224.255319 C242.889321,220.174245 244.135166,216.766984 246.626891,214.033435 C248.888612,211.56939 251.667803,210.337386 254.964548,210.337386 C258.989644,210.337386 262.075504,211.858141 264.222222,214.899696 C265.947263,217.32524 266.809771,220.386 266.809771,224.082067 L266.809771,225.81459 Z M248.236922,221.945289 L261.749676,221.945289 C261.673007,219.442743 261.050085,217.508112 259.880891,216.141337 C258.711696,214.774563 257.130432,214.091185 255.137051,214.091185 C253.220339,214.091185 251.639075,214.803438 250.393212,216.227964 C249.147349,217.652489 248.428593,219.558245 248.236922,221.945289 Z M279,200 L279,237.24924 L274.054907,237.24924 L274.054907,202.656535 L279,200 Z"/>
    <path stroke="#EAEAEA" stroke-linecap="square" stroke-width="3" d="M140.5 164.5L165.817978 189.817978M216.5 249.5L216.5 281.515621"/>
    <path stroke="#EAEAEA" stroke-linecap="square" stroke-width="3" d="M249.5,164.5 L274.817978,189.817978" transform="matrix(-1 0 0 1 524 0)"/>
  </g>
</svg>
