<?xml version="1.0" encoding="utf-8" ?>
<svg xmlns="http://www.w3.org/2000/svg" xmlns:xlink="http://www.w3.org/1999/xlink" width="33" height="35">
	<defs>
		<clipPath id="clip_0">
			<rect x="-451" y="-4062" width="1440" height="8090" clip-rule="evenodd"/>
		</clipPath>
	</defs>
	<g clip-path="url(#clip_0)">
		<path fill="rgb(81,214,208)" stroke="none" transform="translate(0 4)" d="M0 27L32.9999 27L32.9963 26.2732C32.9805 23.3334 30.9339 20.8152 28.1392 20.1715L28.1392 11.7137C28.1392 5.25478 22.9178 0 16.4992 0C10.0813 0 4.86066 5.25478 4.86066 11.7137L4.86066 20.1715C2.066 20.8145 0.0186838 23.3334 0.00359304 26.2732L0 27ZM31.5009 25.5536L1.49902 25.5536C1.82814 23.4498 3.51327 21.7626 5.66694 21.4957L6.29788 21.4183L6.29788 11.7137C6.29788 6.05247 10.874 1.4464 16.4992 1.4464C22.1252 1.4464 26.702 6.05247 26.702 11.7137L26.702 21.4191L27.333 21.4964C29.4859 21.7633 31.1718 23.4505 31.5009 25.5536Z" fill-rule="evenodd"/>
	</g>
	<defs>
		<clipPath id="clip_1">
			<rect x="-451" y="-4062" width="1440" height="8090" clip-rule="evenodd"/>
		</clipPath>
	</defs>
	<g clip-path="url(#clip_1)">
		<path fill="rgb(81,214,208)" stroke="none" transform="translate(13 0)" d="M1.46091 4L0 4L0 3.20107C0 1.43554 1.56975 0 3.50034 0C5.43021 0 6.99995 1.43554 6.99995 3.20107L6.99995 3.98664L5.53904 3.98664L5.53904 3.20107C5.53904 2.17301 4.62451 1.33601 3.50034 1.33601C2.37617 1.33601 1.46091 2.17301 1.46091 3.20107L1.46091 4Z"/>
	</g>
	<defs>
		<clipPath id="clip_2">
			<rect x="-451" y="-4062" width="1440" height="8090" clip-rule="evenodd"/>
		</clipPath>
	</defs>
	<g clip-path="url(#clip_2)">
		<path fill="rgb(81,214,208)" stroke="none" transform="translate(10 30)" d="M5.98866 5C3.09776 5 0.578767 3.05056 0 0.364257L1.43701 0.0856665C1.87714 2.12634 3.79096 3.60774 5.98866 3.60774C8.23184 3.60774 10.153 2.09012 10.5572 0L12.0001 0.251428C11.4682 3.0032 8.94044 5 5.98866 5Z"/>
	</g>
</svg>