<svg xmlns="http://www.w3.org/2000/svg" width="26" height="26" viewBox="0 0 26 26">
  <path fill="#00B1E7" d="M24.075957,0 L1.92616356,0 C0.862325766,0 0,0.837422229 0,1.86439409 L0,24.140989 C0,25.1647528 0.862325766,26 1.92616356,26 L24.0749239,26 C25.1398492,26 26,25.1647528 26,24.140989 L26,1.86439409 C26,0.837422229 25.1397948,0 24.075957,0 Z M7.88447084,21.7630818 L3.9574331,21.7630818 L3.9574331,10.0273169 L7.88452522,10.0273169 L7.88452522,21.7630818 L7.88447084,21.7630818 Z M5.91823325,8.42614997 L5.89224222,8.42614997 C4.57382284,8.42614997 3.72123012,7.51831272 3.72123012,6.39596792 C3.72123012,5.24219464 4.59981387,4.36578587 5.94313678,4.36578587 C7.28754719,4.36578587 8.11414888,5.24219464 8.13905242,6.39596792 C8.14013991,7.51831272 7.28863468,8.42614997 5.91823325,8.42614997 Z M22.0425669,21.7630818 L18.1230872,21.7630818 L18.1230872,15.4862485 C18.1230872,13.9088976 17.5467715,12.8245062 16.1254211,12.8245062 C15.0345048,12.8245062 14.3964196,13.5546475 14.115847,14.2631477 C14.012916,14.5036462 13.9858375,14.8557214 13.9858375,15.208884 L13.9858375,21.7630274 L10.0565704,21.7630818 C10.0565704,21.7630818 10.1063775,11.1257913 10.0565704,10.0272626 L13.9858375,10.0272626 L13.9858375,11.6912865 C14.5015256,10.8928508 15.4353539,9.74995242 17.5207261,9.74995242 C20.1077034,9.74995242 22.0425669,11.4280594 22.0425669,15.033363 L22.0425669,21.7630818 Z M13.9619671,11.7602466 C13.9679776,11.7383083 13.9778949,11.7163701 14.0038401,11.6924283 L14.0038401,11.7602466 L13.9619671,11.7602466 Z"/>
</svg>
