<?xml version="1.0" encoding="utf-8" ?>
<svg xmlns="http://www.w3.org/2000/svg" xmlns:xlink="http://www.w3.org/1999/xlink" width="133" height="38">
	<defs>
		<clipPath id="clip_0">
			<rect x="-95" y="-54" width="1440" height="8090" clip-rule="evenodd"/>
		</clipPath>
		<linearGradient id="gradient_0" gradientUnits="userSpaceOnUse" x1="1.9306625" y1="20.66894" x2="155.71869" y2="20.66894">
			<stop offset="0" stop-color="rgb(103,58,183)"/>
			<stop offset="1" stop-color="rgb(0,177,231)"/>
		</linearGradient>
	</defs>
	<g clip-path="url(#clip_0)">
		<path fill="url(#gradient_0)" stroke="none" d="M34.5582 37.2492L30.7056 37.2492L30.7056 2.65653L35.6507 0L35.6507 13.8024C37.3757 11.4924 39.8482 10.3374 43.0683 10.3374C46.9401 10.3374 49.9876 11.7619 52.211 14.6109C54.0894 16.998 55.0285 20.001 55.0285 23.6201C55.0285 28.3941 53.6485 32.0902 50.8885 34.7082C48.6651 36.8642 45.9625 37.9422 42.7808 37.9422C41.2474 37.9422 39.7333 37.6054 38.2382 36.9316C36.7432 36.2579 35.7082 35.459 35.1332 34.535L34.5582 37.2492ZM62.8487 0.866261C62.2737 1.44377 61.9862 2.13677 61.9862 2.94529C61.9862 3.7923 62.2641 4.50456 62.8199 5.08207C63.3758 5.65958 64.0754 5.94833 64.9187 5.94833C65.7621 5.94833 66.4712 5.65958 67.0463 5.08207C67.6213 4.50456 67.9088 3.7923 67.9088 2.94529C67.9088 2.13677 67.6117 1.44377 67.0175 0.866261C66.4233 0.288751 65.7237 0 64.9187 0C64.1137 0 63.4237 0.288751 62.8487 0.866261ZM133 37.2492L133 0L128.055 2.65653L128.055 37.2492L133 37.2492ZM83.2041 15.0729L83.1466 30.3192C83.1466 32.8602 84.1049 34.1307 86.0216 34.1307C87.3633 34.1307 88.6858 33.7457 89.9892 32.9757L91.7142 35.6322C89.6058 37.2107 87.325 38 84.8716 38C80.4248 38 78.2015 35.5552 78.2015 30.6657L78.2015 15.0729L74.3489 15.0729L74.3489 11.0304L78.259 11.0304L78.259 5.65957L83.2041 3.06079L83.2041 11.0304L91.0242 11.0304L91.0242 15.0729L83.2041 15.0729ZM102.409 25.8146L120.81 25.8146L120.81 24.0821C120.81 20.386 119.947 17.3252 118.222 14.8997C116.076 11.8581 112.99 10.3374 108.965 10.3374C105.668 10.3374 102.889 11.5694 100.627 14.0334C98.1352 16.767 96.8893 20.1742 96.8893 24.2553C96.8893 28.2594 98.0393 31.4934 100.339 33.9574C102.831 36.614 106.185 37.9422 110.402 37.9422C114.082 37.9422 117.264 36.8642 119.947 34.7082L118.452 31.8784C115.999 33.3414 113.584 34.0729 111.207 34.0729C108.754 34.0729 106.741 33.3318 105.169 31.8495C103.598 30.3673 102.678 28.3556 102.409 25.8146ZM16.7903 11.0304L21.7354 11.0304L21.7354 37.2492L17.9403 37.2492L17.5378 34.2462L17.1928 34.2462C16.3111 35.3242 15.1132 36.2097 13.599 36.9027C12.0848 37.5957 10.5994 37.9422 9.14267 37.9422C3.04753 37.9422 0 34.2077 0 26.7386L0 11.0304L4.94509 11.0304L4.94509 25.6413C4.94509 30.9929 6.86178 33.6687 10.6952 33.6687C11.8069 33.6687 12.9569 33.3799 14.1453 32.8024C15.3336 32.2249 16.2153 31.5319 16.7903 30.7234L16.7903 11.0304ZM67.3338 11.0304L67.3338 37.2492L62.3887 37.2492L62.3887 11.0304L67.3338 11.0304ZM102.237 21.9453L115.75 21.9453C115.673 19.4427 115.05 17.5081 113.881 16.1413C112.712 14.7746 111.13 14.0912 109.137 14.0912C107.22 14.0912 105.639 14.8034 104.393 16.228C103.147 17.6525 102.429 19.5582 102.237 21.9453ZM35.6507 29.6839L35.6507 19.2888C36.0723 17.8257 36.9157 16.613 38.1807 15.6505C39.4457 14.6879 40.8066 14.2067 42.2633 14.2067C44.3717 14.2067 46.0967 14.9767 47.4384 16.5167C48.9718 18.2878 49.7384 20.848 49.7384 24.1976C49.7384 27.1236 49.0101 29.5106 47.5534 31.3587C46.0967 33.2067 44.1992 34.1307 41.8608 34.1307C40.4424 34.1307 39.1199 33.6879 37.8932 32.8024C36.6665 31.9169 35.919 30.8774 35.6507 29.6839Z" fill-rule="evenodd"/>
	</g>
</svg>