<?xml version="1.0" encoding="utf-8" ?>
<svg xmlns="http://www.w3.org/2000/svg" xmlns:xlink="http://www.w3.org/1999/xlink" width="44" height="44">
	<defs>
		<clipPath id="clip_0">
			<rect x="-91" y="-4166" width="1440" height="8090" clip-rule="evenodd"/>
		</clipPath>
	</defs>
	<g clip-path="url(#clip_0)">
		<path fill="rgb(81,214,208)" stroke="none" d="M44 13.4837C44 12.3099 43.0448 11.3547 41.871 11.3547C41.6268 11.3547 41.3955 11.4043 41.1769 11.4803L37.9968 7.50543C38.1998 7.17969 38.3226 6.7986 38.3226 6.38699C38.3226 5.21321 37.3674 4.258 36.1935 4.258C35.5967 4.258 35.0588 4.50638 34.672 4.90237L29.0776 2.32061C29.0833 2.25674 29.0968 2.195 29.0968 2.129C29.0968 0.95521 28.1416 0 26.9677 0C26.0437 0 25.2631 0.59541 24.9693 1.41933L16.9017 1.41933C16.6079 0.59541 15.8272 0 14.9032 0C13.7294 0 12.7742 0.95521 12.7742 2.129C12.7742 2.217 12.7898 2.30145 12.8005 2.38732L9.28045 4.14729C8.89723 3.77826 8.37916 3.54833 7.80645 3.54833C6.63265 3.54833 5.67742 4.50354 5.67742 5.67733C5.67742 6.08893 5.80019 6.47002 6.00316 6.79576L2.8231 10.7706C2.60452 10.6947 2.37316 10.645 2.12903 10.645C0.955226 10.645 0 11.6002 0 12.774C0 13.698 0.595419 14.4786 1.41935 14.7724L1.41935 19.2923C0.595419 19.5854 0 20.366 0 21.29C0 22.4638 0.955226 23.419 2.12903 23.419C2.91748 23.419 3.59877 22.9832 3.9671 22.3453L7.84123 23.0492C8.00516 24.0612 8.87806 24.8383 9.93548 24.8383C9.96387 24.8383 9.99084 24.8312 10.0192 24.8298L11.3733 28.2156C10.9305 28.6059 10.6452 29.1708 10.6452 29.806C10.6452 30.9798 11.6004 31.935 12.7742 31.935C13.4881 31.935 14.1176 31.5787 14.5037 31.0387L20.5941 32.7788C20.6488 33.6431 21.2165 34.3634 22 34.6431L22 39.8726C21.1761 40.1664 20.5806 40.947 20.5806 41.871C20.5806 43.0448 21.5359 44 22.7097 44C23.8835 44 24.8387 43.0448 24.8387 41.871C24.8387 40.947 24.2433 40.1664 23.4194 39.8726L23.4194 34.6431C24.2433 34.3493 24.8387 33.5686 24.8387 32.6446C24.8387 31.9648 24.5123 31.3651 24.0148 30.9748L24.8621 28.4321L31.2301 30.5547C31.2471 31.4609 31.8333 32.2238 32.6452 32.5133L32.6452 39.8719C31.8212 40.1657 31.2258 40.9463 31.2258 41.8703C31.2258 43.0441 32.181 43.9993 33.3548 43.9993C34.5286 43.9993 35.4839 43.0441 35.4839 41.8703C35.4839 40.9463 34.8885 40.1657 34.0645 39.8719L34.0645 32.5141C34.8885 32.2203 35.4839 31.4396 35.4839 30.5156C35.4839 30.2566 35.4306 30.0111 35.3455 29.7811L40.7908 25.2435C41.1081 25.4323 41.475 25.548 41.871 25.548C43.0448 25.548 44 24.5928 44 23.419C44 22.495 43.4046 21.7144 42.5806 21.4206L42.5806 15.4814C43.4046 15.1883 44 14.4076 44 13.4837ZM14.9032 1.41933C15.2943 1.41933 15.6129 1.73726 15.6129 2.129C15.6129 2.52073 15.2943 2.83866 14.9032 2.83866C14.5122 2.83866 14.1935 2.52073 14.1935 2.129C14.1935 1.73726 14.5122 1.41933 14.9032 1.41933ZM27.6774 2.129C27.6774 1.73726 27.3588 1.41933 26.9677 1.41933C26.5767 1.41933 26.2581 1.73726 26.2581 2.129C26.2581 2.52073 26.5767 2.83866 26.9677 2.83866C27.3588 2.83866 27.6774 2.52073 27.6774 2.129ZM25.0175 2.97776C24.9984 2.93305 24.9863 2.88479 24.9693 2.83866L17.0323 2.83866L21.5423 6.22093L25.0175 2.97776ZM25.9926 4.01032C26.2857 4.1629 26.6143 4.258 26.9677 4.258C27.5646 4.258 28.1025 4.00961 28.49 3.61291L34.0837 6.19467C34.078 6.25925 34.0645 6.321 34.0645 6.38699C34.0645 6.67583 34.1234 6.95047 34.2277 7.20169L30.1059 10.9111C29.8043 10.7465 29.4637 10.645 29.0968 10.645C28.661 10.645 28.2558 10.7777 27.918 11.0034L22.6962 7.08672L25.9926 4.01032ZM9.90923 5.41972C9.91987 5.50488 9.93548 5.58933 9.93548 5.67733C9.93548 6.50338 9.45787 7.21305 8.76877 7.56575L9.30813 11.7038L14.2929 11.4547C14.5569 10.579 15.3617 9.93532 16.3226 9.93532C16.676 9.93532 17.0046 10.0297 17.2977 10.1823L20.4884 7.20453L16.082 3.89961C15.7442 4.12529 15.339 4.258 14.9032 4.258C14.3305 4.258 13.8125 4.02806 13.4292 3.65975L9.90923 5.41972ZM7.80645 4.96766C8.19748 4.96766 8.51613 5.28559 8.51613 5.67733C8.51613 6.06906 8.19748 6.38699 7.80645 6.38699C7.41542 6.38699 7.09677 6.06906 7.09677 5.67733C7.09677 5.28559 7.41542 4.96766 7.80645 4.96766ZM36.1936 5.67733C36.5846 5.67733 36.9032 5.99526 36.9032 6.38699C36.9032 6.77873 36.5846 7.09666 36.1936 7.09666C35.8025 7.09666 35.4839 6.77873 35.4839 6.38699C35.4839 5.99526 35.8025 5.67733 36.1936 5.67733ZM7.36148 7.75807C7.27561 7.73962 7.19471 7.7091 7.11239 7.68071L3.93232 11.6556C3.99406 11.7549 4.05155 11.8564 4.09626 11.965L7.88523 11.7755L7.36148 7.75807ZM18.2387 12.9762C18.3714 12.6988 18.4516 12.3922 18.4516 12.0643C18.4516 11.762 18.3863 11.4753 18.2728 11.2149L21.6423 8.06961L27.0742 12.1431C27.011 12.3446 26.9677 12.5533 26.9677 12.774C26.9677 12.8733 26.9841 12.9677 26.9968 13.0635L21.2861 16.0243L18.2387 12.9762ZM36.1935 8.51599C35.8266 8.51599 35.486 8.41451 35.1844 8.24987L31.0626 11.96C31.1669 12.2105 31.2258 12.4859 31.2258 12.774C31.2258 13.033 31.1726 13.2786 31.0874 13.5092L34.7486 16.5601L39.776 13.8179C39.7583 13.7079 39.7419 13.5979 39.7419 13.4837C39.7419 13.072 39.8647 12.6917 40.067 12.3659L36.8869 8.39038C36.6683 8.46631 36.4377 8.51599 36.1935 8.51599ZM16.3226 11.3547C15.9315 11.3547 15.6129 11.6726 15.6129 12.0643C15.6129 12.4561 15.9315 12.774 16.3226 12.774C16.7136 12.774 17.0323 12.4561 17.0323 12.0643C17.0323 11.6726 16.7136 11.3547 16.3226 11.3547ZM2.12903 12.0643C2.52006 12.0643 2.83871 12.3823 2.83871 12.774C2.83871 13.1657 2.52006 13.4837 2.12903 13.4837C1.738 13.4837 1.41935 13.1657 1.41935 12.774C1.41935 12.3823 1.738 12.0643 2.12903 12.0643ZM29.0968 12.0643C28.7057 12.0643 28.3871 12.3823 28.3871 12.774C28.3871 13.1657 28.7057 13.4837 29.0968 13.4837C29.4878 13.4837 29.8065 13.1657 29.8065 12.774C29.8065 12.3823 29.4878 12.0643 29.0968 12.0643ZM41.1613 13.4837C41.1613 13.8754 41.4799 14.1933 41.871 14.1933C42.262 14.1933 42.5806 13.8754 42.5806 13.4837C42.5806 13.0919 42.262 12.774 41.871 12.774C41.4799 12.774 41.1613 13.0919 41.1613 13.4837ZM16.2381 14.1841L17.4297 18.0234L11.3846 21.158C11.1313 20.9217 10.8212 20.7499 10.4763 20.6584L9.49265 13.116L14.3554 12.8726C14.6641 13.6206 15.3879 14.15 16.2381 14.1841ZM8.09742 21.654L4.224 20.95C4.09839 20.1772 3.55903 19.5485 2.83871 19.2916L2.83871 14.7717C3.47245 14.5453 3.96355 14.0308 4.15871 13.3829L8.07045 13.187L9.05974 20.7733C8.65239 20.9586 8.31955 21.2687 8.09742 21.654ZM26.2581 19.8706C25.9302 19.8706 25.6236 19.9508 25.3461 20.0843L22.3392 17.0774L27.6476 14.3246C28.0287 14.6809 28.5354 14.903 29.0968 14.903C29.4928 14.903 29.859 14.7873 30.1769 14.5985L33.4081 17.291L27.6717 20.4199C27.2949 20.0821 26.8031 19.8706 26.2581 19.8706ZM19.9646 16.7098L17.8512 14.5971L18.7092 17.3606L19.9646 16.7098ZM40.4573 15.0627L35.9217 17.5366L40.7908 21.5944C40.9079 21.5249 41.0314 21.4674 41.162 21.4206L41.162 15.4814C40.8987 15.3877 40.661 15.2458 40.4573 15.0627ZM21.3145 25.7538L23.9644 26.6373L24.9537 23.6695C24.4555 23.2799 24.129 22.6795 24.129 21.9996C24.129 21.6718 24.2092 21.3652 24.3426 21.0877L21.0178 17.7629L19.1372 18.738L21.3145 25.7538ZM34.5812 18.2682L39.666 22.5056L28.6483 21.5043L34.5812 18.2682ZM17.8562 19.4016L19.6559 25.2017L12.0603 22.6696C12.0588 22.5844 12.0461 22.5021 12.0347 22.4198L17.8562 19.4016ZM1.41935 21.29C1.41935 21.6817 1.738 21.9996 2.12903 21.9996C2.52006 21.9996 2.83871 21.6817 2.83871 21.29C2.83871 20.8982 2.52006 20.5803 2.12903 20.5803C1.738 20.5803 1.41935 20.8982 1.41935 21.29ZM26.2581 22.7093C26.6491 22.7093 26.9677 22.3914 26.9677 21.9996C26.9677 21.6079 26.6491 21.29 26.2581 21.29C25.867 21.29 25.5484 21.6079 25.5484 21.9996C25.5484 22.3914 25.867 22.7093 26.2581 22.7093ZM9.22581 22.7093C9.22581 23.101 9.54445 23.419 9.93548 23.419C10.3265 23.419 10.6452 23.101 10.6452 22.7093C10.6452 22.3176 10.3265 21.9996 9.93548 21.9996C9.54445 21.9996 9.22581 22.3176 9.22581 22.7093ZM41.871 24.1286C41.4799 24.1286 41.1613 23.8107 41.1613 23.419C41.1613 23.0272 41.4799 22.7093 41.871 22.7093C42.262 22.7093 42.5806 23.0272 42.5806 23.419C42.5806 23.8107 42.262 24.1286 41.871 24.1286ZM34.435 28.6904C34.117 28.5023 33.7508 28.3866 33.3548 28.3866C32.675 28.3866 32.0746 28.7131 31.685 29.2113L25.3106 27.0865L26.2978 24.1244C27.1366 24.1088 27.8541 23.6063 28.1863 22.8874L39.815 23.9441C39.8335 24.0151 39.8548 24.0846 39.8803 24.1528L34.435 28.6904ZM14.8905 29.6718L20.9809 31.4119C21.1086 31.2338 21.2648 31.0784 21.4401 30.9464L20.1747 26.8701L11.6061 24.0137C11.5245 24.1173 11.435 24.2124 11.3364 24.2997L12.6905 27.6855C12.7188 27.6841 12.7458 27.677 12.7742 27.677C13.9026 27.677 14.8188 28.5612 14.8905 29.6718ZM22.7338 30.3283L21.8318 27.4229L23.5152 27.9843L22.7338 30.3283ZM12.7742 30.5156C12.3832 30.5156 12.0645 30.1977 12.0645 29.806C12.0645 29.4142 12.3832 29.0963 12.7742 29.0963C13.1652 29.0963 13.4839 29.4142 13.4839 29.806C13.4839 30.1977 13.1652 30.5156 12.7742 30.5156ZM32.6452 30.5156C32.6452 30.9074 32.9638 31.2253 33.3548 31.2253C33.7459 31.2253 34.0645 30.9074 34.0645 30.5156C34.0645 30.1239 33.7459 29.806 33.3548 29.806C32.9638 29.806 32.6452 30.1239 32.6452 30.5156ZM22 32.6446C22 33.0364 22.3186 33.3543 22.7097 33.3543C23.1007 33.3543 23.4194 33.0364 23.4194 32.6446C23.4194 32.2529 23.1007 31.935 22.7097 31.935C22.3186 31.935 22 32.2529 22 32.6446ZM22.7097 42.58C22.3186 42.58 22 42.262 22 41.8703C22 41.4786 22.3186 41.1606 22.7097 41.1606C23.1007 41.1606 23.4194 41.4786 23.4194 41.8703C23.4194 42.262 23.1007 42.58 22.7097 42.58ZM33.3548 42.58C32.9638 42.58 32.6452 42.262 32.6452 41.8703C32.6452 41.4786 32.9638 41.1606 33.3548 41.1606C33.7459 41.1606 34.0645 41.4786 34.0645 41.8703C34.0645 42.262 33.7459 42.58 33.3548 42.58Z" fill-rule="evenodd"/>
	</g>
</svg>
