<?xml version="1.0" encoding="utf-8" ?>
<svg xmlns="http://www.w3.org/2000/svg" xmlns:xlink="http://www.w3.org/1999/xlink" width="34" height="36">
	<defs>
		<clipPath id="clip_0">
			<rect x="-451" y="-4006" width="1440" height="8090" clip-rule="evenodd"/>
		</clipPath>
	</defs>
	<g clip-path="url(#clip_0)">
		<path fill="rgb(81,214,208)" stroke="none" transform="translate(15 20)" d="M0.638298 2L3.3617 2C3.71421 2 4 1.55227 4 1C4 0.447733 3.71421 0 3.3617 0L0.638298 0C0.285787 0 0 0.447733 0 1C0 1.55227 0.285787 2 0.638298 2Z"/>
	</g>
	<defs>
		<clipPath id="clip_1">
			<rect x="-451" y="-4006" width="1440" height="8090" clip-rule="evenodd"/>
		</clipPath>
	</defs>
	<g clip-path="url(#clip_1)">
		<path fill="rgb(81,214,208)" stroke="none" d="M31.6162 26.3766C31.6332 26.3834 31.65 26.391 31.6664 26.3994C33.1058 27.1351 34 28.614 34 30.2591L34 34.1728C34 35.1803 33.1981 36 32.2125 36L1.78747 36C0.801852 36 0 35.1803 0 34.1728L0 30.2591C0 28.614 0.894192 27.1351 2.3336 26.3994C2.34996 26.391 2.36669 26.3833 2.3838 26.3766L6.7053 24.6767C7.15727 24.499 7.50426 24.1277 7.65738 23.6581L7.83057 23.1269C6.86283 21.7066 6.49004 20.3126 7.39785 18.9206C7.80874 18.2905 8.31433 17.8366 8.93766 17.5376C8.66635 16.5077 8.51902 15.4089 8.51902 14.2678L8.51902 14.2289L8.48098 14.2289C7.83088 14.2289 7.30201 13.6883 7.30201 13.0238L7.30201 11.7797C7.30201 11.3266 7.54808 10.9316 7.91051 10.7257L7.91051 9.29158C7.91051 4.16815 11.988 0 17 0C22.012 0 26.0895 4.16815 26.0895 9.29158L26.0895 10.7257C26.4519 10.9316 26.698 11.3266 26.698 11.7797L26.698 13.0238C26.698 13.6883 26.1691 14.2289 25.519 14.2289L25.481 14.2289L25.481 14.2678C25.481 15.4089 25.3337 16.5077 25.0623 17.5375C25.6856 17.8365 26.1913 18.2904 26.6021 18.9205C27.51 20.3126 27.1372 21.7066 26.1694 23.1268L26.3426 23.658C26.4958 24.1275 26.8428 24.4989 27.2947 24.6766L31.6162 26.3766ZM15.745 9.29158L15.745 10.5745L18.255 10.5745L18.255 9.29158C18.255 7.18103 18.0936 5.15811 17.8003 3.59549C17.5055 2.0244 17.1643 1.38752 17 1.20581C16.8357 1.38752 16.4945 2.0244 16.1997 3.59549C15.9064 5.15811 15.745 7.18103 15.745 9.29158ZM21.906 10.5745L19.396 10.5745L19.396 9.29158C19.396 6.92561 19.2016 4.6954 18.8486 3.01156C18.7272 2.43198 18.5931 1.93988 18.4448 1.53183C19.1639 1.90435 19.8299 2.55429 20.3926 3.44908C21.3686 5.00105 21.906 7.0759 21.906 9.29158L21.906 10.5745ZM15.5552 1.5319C15.4068 1.93996 15.2728 2.43206 15.1514 3.01164C14.7984 4.6954 14.604 6.92561 14.604 9.29158L14.604 10.5745L12.094 10.5745L12.094 9.29158C12.094 7.0759 12.6314 5.00105 13.6074 3.44916C14.1701 2.55429 14.8361 1.90442 15.5552 1.5319ZM13.0399 2.24848C12.9046 2.42864 12.7736 2.61828 12.6477 2.81842C11.5548 4.55614 10.953 6.85501 10.953 9.29158L10.953 10.5745L9.05145 10.5745L9.05145 9.29158C9.05145 6.28429 10.658 3.65342 13.0399 2.24848ZM24.9485 10.5745L24.9485 9.29158C24.9485 6.28429 23.3419 3.65342 20.9602 2.24856C21.0954 2.42864 21.2265 2.61828 21.3524 2.8185C22.4452 4.55614 23.047 6.85501 23.047 9.29158L23.047 10.5745L24.9485 10.5745ZM8.44295 11.7797L8.44295 13.0238C8.44295 13.0452 8.45999 13.0626 8.48098 13.0626L9.73602 13.0626L9.73602 11.7408L8.48098 11.7408C8.45999 11.7408 8.44295 11.7582 8.44295 11.7797ZM10.877 11.7408L10.877 13.0626L12.7785 13.0626L12.7785 11.7408L10.877 11.7408ZM13.9195 13.0626L13.9195 11.7408L16.4295 11.7408L16.4295 13.0626L13.9195 13.0626ZM17.5705 11.7408L17.5705 13.0626L20.0805 13.0626L20.0805 11.7408L17.5705 11.7408ZM21.2215 13.0626L21.2215 11.7408L23.123 11.7408L23.123 13.0626L21.2215 13.0626ZM25.519 13.0626C25.54 13.0626 25.557 13.0452 25.557 13.0238L25.557 11.7797C25.557 11.7582 25.54 11.7408 25.519 11.7408L24.264 11.7408L24.264 13.0626L25.519 13.0626ZM13.3889 14.2289C13.3881 14.2418 13.387 14.2547 13.387 14.2678L13.387 14.8898C13.387 15.2119 13.6424 15.473 13.9575 15.473C14.2725 15.473 14.528 15.2119 14.528 14.8898L14.528 14.2678C14.528 14.2547 14.5269 14.2418 14.5261 14.2289L19.4739 14.2289C19.4731 14.2418 19.472 14.2547 19.472 14.2678L19.472 14.8898C19.472 15.2119 19.7275 15.473 20.0425 15.473C20.3576 15.473 20.613 15.2119 20.613 14.8898L20.613 14.2678C20.613 14.2547 20.6119 14.2418 20.6111 14.2289L24.34 14.2289L24.34 14.2678C24.34 14.703 24.3162 15.1312 24.2709 15.5508L23.9445 15.5508C23.2379 15.5508 22.5736 15.8321 22.0724 16.3444C21.7882 16.6349 21.4104 16.7948 21.0085 16.7948L12.9915 16.7948C12.5896 16.7948 12.2119 16.6348 11.9262 16.3428C11.4265 15.8321 10.7621 15.5508 10.0555 15.5508L9.72902 15.5508C9.68384 15.1312 9.65988 14.703 9.65988 14.2678L9.65988 14.2289L13.3889 14.2289ZM9.91492 16.7171L10.0555 16.7171C10.4574 16.7171 10.8351 16.8771 11.1208 17.169C11.6205 17.6798 12.2849 17.9611 12.9915 17.9611L21.0085 17.9611C21.7151 17.9611 22.3795 17.6798 22.8806 17.1675C23.1648 16.877 23.5426 16.7171 23.9445 16.7171L24.0851 16.7171C23.2393 20.6992 20.3836 23.6371 17 23.6371C13.6164 23.6371 10.7607 20.6992 9.91492 16.7171ZM9.29273 18.6617C8.91834 18.8685 8.61234 19.1609 8.34711 19.5675C8.01411 20.0782 7.74211 20.841 8.60162 22.2193C9.04788 22.935 9.71807 23.6959 10.4842 24.4919C10.7616 24.411 10.953 24.1547 10.953 23.857L10.953 21.7322C10.953 21.7057 10.9554 21.6798 10.9587 21.6542C10.2731 20.7889 9.70666 19.7777 9.29273 18.6617ZM25.3985 22.2192C26.258 20.841 25.9859 20.0781 25.6529 19.5675C25.3877 19.1609 25.0817 18.8685 24.7074 18.6617C24.2934 19.7777 23.727 20.7889 23.0414 21.6542C23.0447 21.6798 23.0471 21.7057 23.0471 21.7322L23.0471 23.857C23.0471 24.1546 23.2384 24.411 23.5158 24.4918C24.282 23.6959 24.9521 22.9349 25.3985 22.2192ZM12.094 23.857C12.094 24.3482 11.9048 24.7986 11.5898 25.13C13.2492 26.1892 15.1109 26.7473 17 26.7473C18.8892 26.7473 20.7507 26.1891 22.4101 25.1299C22.0951 24.7985 21.906 24.3481 21.906 23.857L21.906 22.8573C20.5203 24.0824 18.8266 24.8035 17 24.8035C15.1734 24.8035 13.4797 24.0824 12.094 22.8573L12.094 23.857ZM32.2125 34.8337C32.569 34.8337 32.8591 34.5372 32.8591 34.1728L32.8591 30.2591C32.8591 29.0676 32.2163 27.9956 31.1797 27.4546L26.8849 25.7651C26.1748 25.4858 25.6171 24.9259 25.3291 24.2133C24.6563 25.0009 23.8567 25.7983 23.0433 26.6094C20.628 29.0173 17.9102 31.7279 17.6005 34.8337L26.7741 34.8337L26.7741 32.9287C26.7741 32.6067 27.0295 32.3456 27.3445 32.3456C27.6596 32.3456 27.915 32.6067 27.915 32.9287L27.915 34.8337L32.2125 34.8337ZM1.14094 34.1728L1.14094 30.2591C1.14094 29.0677 1.78374 27.9956 2.82033 27.4547L7.11505 25.7652C7.82525 25.4859 8.38294 24.926 8.67091 24.2134C9.34369 25.001 10.1433 25.7984 10.9567 26.6094C13.372 29.0174 16.0898 31.728 16.3995 34.8338L7.22595 34.8338L7.22595 32.9288C7.22595 32.6067 6.97053 32.3456 6.65548 32.3456C6.34043 32.3456 6.08501 32.6067 6.08501 32.9288L6.08501 34.8337L1.78747 34.8337C1.43097 34.8337 1.14094 34.5372 1.14094 34.1728ZM17 27.9136C18.3021 27.9136 19.5908 27.6751 20.8206 27.216C19.2631 28.8335 17.7806 30.5896 17 32.5566C16.2194 30.5896 14.7368 28.8334 13.1795 27.2159C14.4092 27.6751 15.6979 27.9136 17 27.9136Z" fill-rule="evenodd"/>
	</g>
</svg>
