<?xml version="1.0" encoding="utf-8" ?>
<svg xmlns="http://www.w3.org/2000/svg" xmlns:xlink="http://www.w3.org/1999/xlink" width="39" height="26">
	<defs>
		<clipPath id="clip_0">
			<rect x="-92" y="-4117" width="1440" height="8090" clip-rule="evenodd"/>
		</clipPath>
	</defs>
	<g clip-path="url(#clip_0)">
		<path fill="rgb(81,214,208)" stroke="none" transform="translate(19 2)" d="M1 5C1.55226 5 2 4.62688 2 4.16665L2 0.833346C2 0.373119 1.55226 0 1 0C0.447736 0 0 0.373119 0 0.833346L0 4.16665C2.66445e-15 4.62688 0.447736 5 1 5Z"/>
	</g>
	<defs>
		<clipPath id="clip_1">
			<rect x="-92" y="-4117" width="1440" height="8090" clip-rule="evenodd"/>
		</clipPath>
	</defs>
	<g clip-path="url(#clip_1)">
		<path fill="rgb(81,214,208)" stroke="none" transform="translate(16 10)" d="M8.61517 0.109861C8.61612 0.110455 8.617 0.110973 8.61795 0.111567C8.98912 0.335084 9.11077 0.820448 8.88969 1.19557L5.27628 7.38579C6.14708 8.16384 6.52763 9.36083 6.26843 10.5061C5.87747 12.2338 4.17525 13.3138 2.46657 12.9184C0.757829 12.5231 -0.310356 10.8021 0.0806811 9.07452C0.471645 7.34687 2.17386 6.26687 3.88254 6.66223L7.54368 0.389796L7.54412 0.389055C7.76358 0.0128926 8.24312 -0.112099 8.61517 0.109861ZM3.21851 11.3279C3.75385 11.3244 4.25033 11.0445 4.53446 10.5858C4.99296 9.84545 4.77115 8.86953 4.03901 8.40604C3.96239 8.38854 3.88884 8.35948 3.8208 8.31982C3.79887 8.30714 3.78634 8.28505 3.76602 8.27C3.59129 8.20172 3.40578 8.16606 3.21851 8.1648C2.35461 8.1648 1.65429 8.87287 1.65429 9.74633C1.65429 10.6198 2.35461 11.3279 3.21851 11.3279Z" fill-rule="evenodd"/>
	</g>
	<defs>
		<clipPath id="clip_2">
			<rect x="-92" y="-4117" width="1440" height="8090" clip-rule="evenodd"/>
		</clipPath>
	</defs>
	<g clip-path="url(#clip_2)">
		<path fill="rgb(81,214,208)" stroke="none" transform="translate(32 19)" d="M0 1C0 1.55226 0.373119 2 0.833346 2L4.16665 2C4.62688 2 5 1.55226 5 1C5 0.447736 4.62688 0 4.16665 0L0.833346 0C0.373119 0 0 0.447736 0 1Z"/>
	</g>
	<defs>
		<clipPath id="clip_3">
			<rect x="-92" y="-4117" width="1440" height="8090" clip-rule="evenodd"/>
		</clipPath>
	</defs>
	<g clip-path="url(#clip_3)">
		<path fill="rgb(81,214,208)" stroke="none" transform="translate(2 19)" d="M4.16658 0L0.833346 0C0.373119 0 0 0.447736 0 1C0 1.55226 0.373119 2 0.833346 2L4.16665 2C4.62688 2 5 1.55226 5 1C5 0.447736 4.6268 0 4.16658 0Z"/>
	</g>
	<defs>
		<clipPath id="clip_4">
			<rect x="-92" y="-4117" width="1440" height="8090" clip-rule="evenodd"/>
		</clipPath>
	</defs>
	<g clip-path="url(#clip_4)">
		<path fill="rgb(81,214,208)" stroke="none" transform="translate(11 5)" d="M1.50935 0.402881C1.28187 0.0134985 0.784807 -0.116014 0.399089 0.113549C0.0133715 0.343188 -0.114922 0.844973 0.11248 1.23436L1.49065 3.59712C1.71813 3.9865 2.21519 4.11601 2.60091 3.88645C2.98663 3.65681 3.11492 3.15503 2.88752 2.76564L1.50935 0.402881Z"/>
	</g>
	<defs>
		<clipPath id="clip_5">
			<rect x="-92" y="-4117" width="1440" height="8090" clip-rule="evenodd"/>
		</clipPath>
	</defs>
	<g clip-path="url(#clip_5)">
		<path fill="rgb(81,214,208)" stroke="none" transform="translate(30 10)" d="M0.104396 2.58352C0.323521 2.97706 0.816154 3.11629 1.20479 2.89444L3.58896 1.53117C3.9776 1.30909 4.11484 0.80992 3.89557 0.416306C3.67629 0.0226916 3.18343 -0.116312 2.79479 0.105772L0.410625 1.46904C0.0222905 1.69127 -0.114729 2.19014 0.104396 2.58352Z"/>
	</g>
	<defs>
		<clipPath id="clip_6">
			<rect x="-92" y="-4117" width="1440" height="8090" clip-rule="evenodd"/>
		</clipPath>
	</defs>
	<g clip-path="url(#clip_6)">
		<path fill="rgb(81,214,208)" stroke="none" transform="translate(5 10)" d="M3.589 1.46893L1.20508 0.105764C0.816486 -0.116304 0.323677 0.02269 0.104424 0.416276C-0.11483 0.809862 0.0224024 1.309 0.411 1.53107L2.79492 2.89424C3.18351 3.1163 3.67632 2.97731 3.89558 2.58372C4.11483 2.19014 3.9776 1.691 3.589 1.46893Z"/>
	</g>
	<defs>
		<clipPath id="clip_7">
			<rect x="-92" y="-4117" width="1440" height="8090" clip-rule="evenodd"/>
		</clipPath>
	</defs>
	<g clip-path="url(#clip_7)">
		<path fill="rgb(81,214,208)" stroke="none" transform="translate(25 5)" d="M2.6033 0.11577C2.60209 0.115003 2.60087 0.114313 2.59966 0.113623C2.21434 -0.115937 1.7177 0.013334 1.49042 0.402374C1.49026 0.402604 1.49011 0.402911 1.48996 0.403141L0.112959 2.7643C-0.114935 3.15364 0.0128709 3.65585 0.398489 3.88595C0.784108 4.11605 1.28151 3.987 1.5094 3.59766L2.8864 1.2365C3.11475 0.848076 2.98801 0.346249 2.6033 0.11577Z"/>
	</g>
	<defs>
		<clipPath id="clip_8">
			<rect x="-92" y="-4117" width="1440" height="8090" clip-rule="evenodd"/>
		</clipPath>
	</defs>
	<g clip-path="url(#clip_8)">
		<path fill="rgb(81,214,208)" stroke="none" d="M18.9524 0.00782874C24.3547 -0.140855 29.4296 1.83271 33.2483 5.55385C36.9574 9.16455 39 13.9752 39 19.0939L39 23.8331C38.9906 25.0364 38.0096 26.0054 36.8063 26L2.19375 26C0.990387 26.0054 0.00936914 25.0364 0 23.8331L0 19.4741C0 9.01914 8.502 0.288973 18.9524 0.00782874ZM36.8062 24.3766C37.1126 24.383 37.3666 24.141 37.375 23.8347L37.3749 23.8347L37.3749 19.0939C37.3749 14.4156 35.5062 10.0201 32.1148 6.71819C28.6204 3.30188 23.8803 1.46443 18.9962 1.63284C9.41766 1.88877 1.62497 9.89334 1.62497 19.4741L1.62497 23.8347C1.63343 24.141 1.88746 24.383 2.19375 24.3766L36.8062 24.3766Z" fill-rule="evenodd"/>
	</g>
</svg>
