<?xml version="1.0" encoding="utf-8" ?>
<svg xmlns="http://www.w3.org/2000/svg" xmlns:xlink="http://www.w3.org/1999/xlink" width="31" height="35">
	<defs>
		<clipPath id="clip_0">
			<rect x="-96" y="-4059" width="1440" height="8090" clip-rule="evenodd"/>
		</clipPath>
	</defs>
	<g clip-path="url(#clip_0)">
		<path fill="rgb(81,214,208)" stroke="none" d="M19.6002 26.1214C22.53 21.2286 26.233 14.35 26.233 10.8143C26.233 4.85 21.4162 0 15.4929 0C9.56956 0 4.75286 4.85 4.75286 10.8143C4.75286 14.35 8.45584 21.2286 11.3856 26.1214C7.90961 26.3857 0 27.3357 0 30.4857C0 33.5857 8.03021 35 15.5 35C22.9627 35 31 33.5857 31 30.4857C30.9929 27.3357 23.0762 26.3857 19.6002 26.1214ZM6.23547 10.8143C6.23547 5.67143 10.3924 1.48571 15.4929 1.48571C20.6005 1.48571 24.7574 5.67143 24.7574 10.8143C24.7574 15.3071 17.6494 26.5786 15.4929 29.8929C13.3364 26.5786 6.23547 15.3071 6.23547 10.8143ZM1.47551 30.4786C1.47551 31.5071 6.41991 33.5071 15.4929 33.5071C24.5659 33.5071 29.5103 31.5143 29.5174 30.4786C29.5174 29.6786 26.2542 27.9786 18.7348 27.5429C17.3231 29.8357 16.259 31.4714 16.1101 31.65C15.6348 32.2143 15.0744 31.9071 14.8828 31.65C14.741 31.4571 13.6698 29.8357 12.2581 27.5429C4.73867 27.9786 1.47551 29.6857 1.47551 30.4786Z" fill-rule="evenodd"/>
	</g>
	<defs>
		<clipPath id="clip_1">
			<rect x="-96" y="-4059" width="1440" height="8090" clip-rule="evenodd"/>
		</clipPath>
	</defs>
	<g clip-path="url(#clip_1)">
		<path fill="rgb(81,214,208)" stroke="none" transform="translate(11 6)" d="M4.5 0C6.98558 0 9 2.01442 9 4.5C9 6.98558 6.98558 9 4.5 9C2.01442 9 0 6.98558 0 4.5C0 2.01442 2.01442 0 4.5 0ZM4.5 1.42033C2.7997 1.42033 1.42033 2.7997 1.42033 4.5C1.42033 6.2003 2.7997 7.57967 4.5 7.57967C6.2003 7.57967 7.57967 6.2003 7.57967 4.5C7.57967 2.7997 6.2003 1.42033 4.5 1.42033Z" fill-rule="evenodd"/>
	</g>
</svg>
